<svg width="20" height="20" viewBox="0 0 20 20" fill="none" xmlns="http://www.w3.org/2000/svg">
<path d="M3.51884 3.01836H3.01884V3.51836V16.4813V16.9813H3.51884H16.4818H16.9818V16.4813V3.51836V3.01836H16.4818H3.51884ZM8.5744 11.8517V14.1295H7.72255V5.87021H10.4633C11.1902 5.87021 11.8873 6.15896 12.4013 6.67295C12.9153 7.18694 13.204 7.88406 13.204 8.61095C13.204 9.33784 12.9153 10.035 12.4013 10.5489C11.8873 11.0629 11.1902 11.3517 10.4633 11.3517H9.0744H8.5744V11.8517ZM9.0744 6.72206H8.5744V7.22206V9.99984V10.4998H9.0744H10.4633C10.9643 10.4998 11.4447 10.3008 11.7989 9.9466C12.1532 9.59236 12.3522 9.11191 12.3522 8.61095C12.3522 8.10998 12.1532 7.62954 11.7989 7.2753C11.4447 6.92107 10.9643 6.72206 10.4633 6.72206H9.0744ZM2.59292 2.1665H17.4077C17.5207 2.1665 17.629 2.21138 17.7089 2.29125C17.7888 2.37113 17.8337 2.47947 17.8337 2.59243V17.4072C17.8337 17.5202 17.7888 17.6285 17.7089 17.7084C17.629 17.7883 17.5207 17.8332 17.4077 17.8332H2.59292C2.47996 17.8332 2.37162 17.7883 2.29174 17.7084C2.21187 17.6285 2.16699 17.5202 2.16699 17.4072V2.59243C2.16699 2.47947 2.21187 2.37113 2.29174 2.29125C2.37162 2.21138 2.47996 2.1665 2.59292 2.1665Z" fill="#00526C" stroke="#BEC0C5"/>
</svg>
