<svg width="20" height="20" viewBox="0 0 20 20" fill="none" xmlns="http://www.w3.org/2000/svg">
<path d="M2.40352 2.5L17.0658 16.0014C17.344 16.2576 17.5003 16.6051 17.5003 16.9674C17.5003 17.3297 17.344 17.6772 17.0658 17.9334C16.7875 18.1895 16.4102 18.3333 16.0168 18.3333C15.6233 18.3333 15.246 18.1895 14.9677 17.9334L11.386 14.5785C11.1516 14.3593 11.0202 14.0641 11.0199 13.7565V13.5538C11.0199 13.3985 10.9865 13.2448 10.9214 13.1014C10.8564 12.9581 10.7611 12.8282 10.641 12.7191L10.1786 12.3258C10.0216 12.1925 9.83072 12.0976 9.62348 12.0499C9.41624 12.0023 9.19931 12.0034 8.99266 12.0532C8.66679 12.1315 8.32435 12.13 7.99931 12.0488C7.67428 11.9676 7.37795 11.8096 7.13973 11.5904L3.7399 8.45934C1.723 6.60213 0.980791 3.79763 2.40352 2.5Z" stroke="#BEC0C5" stroke-width="1.5" stroke-linejoin="round"/>
<path d="M15.5059 2.5L12.7757 5.23024C12.5656 5.44029 12.3989 5.68967 12.2852 5.96414C12.1715 6.2386 12.113 6.53278 12.113 6.82986V7.35506C12.113 7.42937 12.0984 7.50295 12.0699 7.5716C12.0415 7.64025 11.9998 7.70262 11.9472 7.75514L11.5475 8.15487M12.6785 9.28584L13.0782 8.88612C13.1307 8.83356 13.1931 8.79186 13.2617 8.76342C13.3304 8.73498 13.404 8.72035 13.4783 8.72036H14.0035C14.3006 8.72036 14.5947 8.66184 14.8692 8.54813C15.1437 8.43443 15.393 8.26777 15.6031 8.05768L18.3333 5.32744M16.9196 3.91372L14.0922 6.74115M8.43731 14.3752L4.91291 17.9194C4.6478 18.1844 4.28828 18.3333 3.91342 18.3333C3.53855 18.3333 3.17903 18.1844 2.91392 17.9194C2.64889 17.6543 2.5 17.2948 2.5 16.9199C2.5 16.5451 2.64889 16.1855 2.91392 15.9204L5.89262 12.9615" stroke="#BEC0C5" stroke-width="1.6" stroke-linecap="round" stroke-linejoin="round"/>
</svg>
