<svg width="20" height="20" viewBox="0 0 20 20" fill="none" xmlns="http://www.w3.org/2000/svg">
<path d="M14.0874 16.9185L14.0878 16.9191C14.1047 16.9396 14.1297 16.9601 14.1635 16.9755C14.1973 16.991 14.2368 16.9999 14.2784 16.9998C14.3285 16.9998 14.3749 16.9869 14.4121 16.9658C14.4491 16.9449 14.4726 16.9187 14.4855 16.895C14.4981 16.8719 14.5018 16.8498 14.4998 16.83C14.4978 16.8099 14.4894 16.7859 14.4694 16.7616L14.4694 16.7614L13.8817 16.0452C13.4012 15.4605 13.0613 14.7853 12.888 14.0646C12.7146 13.3437 12.7126 12.5966 12.8821 11.8749L13.9466 7.33877C14.1234 6.58478 14.1212 5.80542 13.94 5.05225C13.7587 4.29892 13.402 3.58664 12.8907 2.96421L12.8906 2.96402L12.3028 2.24768L14.0874 16.9185ZM14.0874 16.9185L13.4988 16.2022M14.0874 16.9185L13.4988 16.2022M13.4988 16.2022C13.4988 16.2021 13.4988 16.2021 13.4988 16.2021C12.9876 15.5796 12.6309 14.8672 12.4498 14.1138C12.2687 13.3605 12.2666 12.5811 12.4436 11.827L12.4437 11.8269L13.5075 7.29082M13.4988 16.2022L13.5075 7.29082M13.5075 7.29082C13.677 6.56908 13.675 5.82202 13.5016 5.1011M13.5075 7.29082L13.5016 5.1011M10.4763 16.9185L10.4767 16.9191C10.4936 16.9396 10.5186 16.9601 10.5524 16.9755C10.5862 16.991 10.6257 16.9999 10.6673 16.9998C10.7174 16.9998 10.7638 16.9869 10.801 16.9658C10.838 16.9449 10.8615 16.9187 10.8744 16.895C10.887 16.8719 10.8907 16.8498 10.8887 16.83C10.8867 16.8099 10.8783 16.7859 10.8583 16.7616L10.8582 16.7614L10.2706 16.0452L10.4763 16.9185ZM10.4763 16.9185L9.88773 16.2022C9.37651 15.5796 9.01984 14.8672 8.83871 14.1138C8.65762 13.3605 8.65552 12.5811 8.83254 11.827L8.83256 11.8269M10.4763 16.9185L8.83256 11.8269M8.83256 11.8269L9.89636 7.29082C9.89637 7.29077 9.89638 7.29072 9.8964 7.29067C10.0659 6.56897 10.0638 5.82197 9.89046 5.1011C9.71712 4.38037 9.37723 3.70523 8.89682 3.12052C8.8968 3.12049 8.89678 3.12047 8.89676 3.12044L8.30898 2.40478L8.83256 11.8269ZM8.69176 2.24779L8.69167 2.24768C8.67731 2.23019 8.65705 2.21275 8.63042 2.19835C8.60374 2.18392 8.57226 2.17344 8.53776 2.16893C8.50326 2.16443 8.46816 2.16624 8.43502 2.17399C8.40189 2.18175 8.373 2.19489 8.34958 2.21093C8.32624 2.22693 8.30956 2.24491 8.29844 2.26207C8.28741 2.27908 8.28166 2.29548 8.27936 2.31019C8.27707 2.32481 8.27787 2.33976 8.28212 2.35494C8.28641 2.37022 8.2947 2.38737 8.30893 2.40472L8.69176 2.24779ZM8.69176 2.24779L9.28029 2.96415M8.69176 2.24779L9.28029 2.96415M7.05569 16.9998L7.05615 16.9998C7.10625 16.9998 7.15271 16.9869 7.18991 16.9658C7.22689 16.9449 7.25036 16.9187 7.2633 16.895C7.27591 16.8719 7.27957 16.8498 7.2776 16.83C7.27561 16.8099 7.26722 16.7859 7.24722 16.7616L7.24713 16.7614L6.65945 16.0452L7.05569 16.9998ZM7.05569 16.9998C7.01408 16.9999 6.97453 16.991 6.94065 16.9756C6.90685 16.9602 6.88175 16.9397 6.86486 16.9191L6.86444 16.9185M7.05569 16.9998L6.86444 16.9185M6.86444 16.9185L6.2759 16.2022C6.27588 16.2021 6.27585 16.2021 6.27583 16.2021C5.76464 15.5796 5.408 14.8672 5.22688 14.1138C5.04579 13.3605 5.04369 12.5811 5.2207 11.827L5.22071 11.827M6.86444 16.9185L5.22071 11.827M5.22071 11.827L6.28525 7.29082C6.28525 7.2908 6.28526 7.29077 6.28527 7.29074C6.45475 6.56903 6.45273 5.822 6.27935 5.1011C6.10601 4.38037 5.76612 3.70523 5.28571 3.12052C5.28569 3.12049 5.28567 3.12047 5.28565 3.12044L4.69787 2.40478L5.22071 11.827ZM5.08065 2.24779L5.08056 2.24768C5.05111 2.21182 4.99798 2.17824 4.92665 2.16893C4.85514 2.1596 4.7869 2.17776 4.73847 2.21093C4.69129 2.24326 4.67267 2.28189 4.66825 2.31019C4.66596 2.32481 4.66675 2.33976 4.67101 2.35494C4.6753 2.37022 4.68359 2.38737 4.69782 2.40472L5.08065 2.24779ZM5.08065 2.24779L5.66918 2.96415M5.08065 2.24779L5.66918 2.96415M13.5016 5.1011C13.3282 4.38037 12.9883 3.70523 12.5079 3.12052M13.5016 5.1011L12.5079 3.12052M12.5079 3.12052C12.5079 3.12049 12.5079 3.12047 12.5079 3.12044M12.5079 3.12052L12.5079 3.12044M12.5079 3.12044L11.9201 2.40478L12.5079 3.12044ZM11.8932 2.35494C11.8975 2.37022 11.9058 2.38737 11.92 2.40472L11.8932 2.35494ZM11.8932 2.35494C11.889 2.33976 11.8882 2.32481 11.8905 2.31018M11.8932 2.35494L11.8905 2.31018M11.8905 2.31018C11.8928 2.29548 11.8985 2.27908 11.9095 2.26207M11.8905 2.31018L11.9095 2.26207M11.9095 2.26207C11.9207 2.24491 11.9373 2.22693 11.9607 2.21093M11.9095 2.26207L11.9607 2.21093M11.9607 2.21093C11.9841 2.19489 12.013 2.18175 12.0461 2.17399M11.9607 2.21093L12.0461 2.17399M12.0461 2.17399C12.0793 2.16624 12.1144 2.16443 12.1489 2.16893M12.0461 2.17399L12.1489 2.16893M12.1489 2.16893C12.1834 2.17344 12.2149 2.18392 12.2415 2.19835M12.1489 2.16893L12.2415 2.19835M12.2415 2.19835C12.2681 2.21272 12.2883 2.23011 12.3027 2.24756L12.2415 2.19835ZM9.28029 2.96415C9.28031 2.96417 9.28032 2.96418 9.28033 2.96419M9.28029 2.96415L9.28033 2.96419M9.28033 2.96419C9.28034 2.96421 9.28036 2.96423 9.28038 2.96425M9.28033 2.96419L9.28038 2.96425M9.28038 2.96425C9.79146 3.5867 10.1481 4.29897 10.3292 5.05226M9.28038 2.96425L10.3292 5.05226M10.3292 5.05226C10.5103 5.80542 10.5124 6.58475 10.3355 7.33869M10.3292 5.05226L10.3355 7.33869M10.3355 7.33869C10.3355 7.3387 10.3355 7.3387 10.3355 7.3387M10.3355 7.33869L10.3355 7.3387M10.3355 7.3387L9.27096 11.8749L10.3355 7.3387ZM9.27686 14.0646C9.10348 13.3437 9.10145 12.5967 9.27094 11.8749L9.27686 14.0646ZM9.27686 14.0646C9.45018 14.7852 9.79002 15.4603 10.2704 16.045L9.27686 14.0646ZM5.66918 2.96415C5.66921 2.96419 5.66924 2.96422 5.66926 2.96425M5.66918 2.96415L5.66926 2.96425M5.66926 2.96425C6.18035 3.5867 6.53695 4.29897 6.71806 5.05226M5.66926 2.96425L6.71806 5.05226M6.71806 5.05226C6.89915 5.80542 6.9013 6.58475 6.72438 7.33869M6.71806 5.05226L6.72438 7.33869M6.72438 7.33869C6.72438 7.3387 6.72438 7.3387 6.72438 7.3387M6.72438 7.33869L6.72438 7.3387M6.72438 7.3387L5.65985 11.8749L6.72438 7.3387ZM5.66575 14.0646C5.49237 13.3437 5.49034 12.5967 5.65983 11.8749L5.66575 14.0646ZM5.66575 14.0646C5.83907 14.7852 6.17891 15.4603 6.65924 16.045L5.66575 14.0646Z" fill="#00526C" stroke="#BEC0C5"/>
</svg>
