<svg width="20" height="20" viewBox="0 0 20 20" fill="none" xmlns="http://www.w3.org/2000/svg">
<path d="M17.9366 10.0094L17.9371 10.0204L17.9297 10.0567L17.9292 10.1043C17.9082 12.1732 17.077 14.1514 15.614 15.6144C14.1516 17.0768 12.1744 17.908 10.1064 17.9297H9.92291C7.84447 17.9158 5.85509 17.0839 4.38535 15.6142C2.9152 14.144 2.08331 12.1539 2.06983 10.0749L2.06945 10.0161L2.06233 9.9871L2.06198 9.97956L2.06933 9.94333L2.06982 9.89571C2.09086 7.8268 2.92208 5.84858 4.38509 4.38556C5.84752 2.92314 7.82474 2.092 9.89274 2.07031H10.0836C12.1594 2.08617 14.1458 2.91783 15.6138 4.38577C17.0821 5.85413 17.9138 7.84124 17.9292 9.91777L17.9296 9.96766L17.9368 10.0023L17.9366 10.0094ZM5.0055 5.00567L5.0052 5.00597C3.95247 6.0596 3.26064 7.4197 3.02905 8.891L2.92171 9.57292L3.6031 9.46229C5.07089 9.22397 6.42651 8.52993 7.47799 7.47846C8.52946 6.42698 9.2235 5.07136 9.46182 3.60357L9.57245 2.92218L8.89053 3.02952C7.41922 3.26111 6.05913 3.95294 5.0055 5.00567ZM3.43898 10.3709L2.93814 10.432L3.00378 10.9322C3.2055 12.4697 3.90922 13.8974 5.00565 14.9939C6.10209 16.0903 7.52988 16.794 9.0673 16.9958L9.56756 17.0614L9.62866 16.5606C9.84382 14.797 10.6433 13.1563 11.8995 11.9C13.1558 10.6437 14.7965 9.84429 16.5601 9.62913L17.0609 9.56803L16.9953 9.06777C16.7936 7.53035 16.0898 6.10256 14.9934 5.00612C13.897 3.90969 12.4692 3.20597 10.9318 3.00425L10.4315 2.93861L10.3704 3.43945C10.1552 5.203 9.35578 6.84373 8.09952 8.09999C6.84325 9.35626 5.20253 10.1557 3.43898 10.3709ZM10.5372 16.3964L10.4266 17.0776L11.1084 16.9705C12.5799 16.7394 13.9403 16.0474 14.9936 14.9941C16.0469 13.9407 16.7389 12.5804 16.97 11.1088L17.0771 10.4271L16.396 10.5377C14.9282 10.776 13.5725 11.4701 12.5211 12.5215C11.4696 13.573 10.7756 14.9286 10.5372 16.3964Z" fill="#00526C" stroke="#BEC0C5"/>
</svg>
