<svg width="20" height="20" viewBox="0 0 20 20" fill="none" xmlns="http://www.w3.org/2000/svg">
<path d="M2.16699 7.99984H2.50033C3.16591 7.99984 3.85575 8.08464 4.5708 8.25678C5.27863 8.42719 5.9378 8.68205 6.54996 9.02069L7.18664 9.37289L7.28719 8.65227C7.44597 7.5144 7.80799 6.3368 8.38038 5.11825L8.38042 5.11816C8.85663 4.10388 9.39723 3.21516 10.0003 2.44881C10.6035 3.21515 11.1444 4.10384 11.621 5.11809C12.1929 6.33667 12.5547 7.51432 12.7135 8.65227L12.814 9.37289L13.4507 9.02069C14.0628 8.68205 14.722 8.42719 15.4299 8.25678C16.1449 8.08464 16.8347 7.99984 17.5003 7.99984H17.8337V8.33317C17.8337 9.98199 17.5969 11.3666 17.1406 12.5007C16.6753 13.6575 16.0736 14.5982 15.3428 15.3353L15.3427 15.3354C14.6022 16.0827 13.7672 16.6528 12.8359 17.0499L12.8357 17.05C11.9036 17.4477 10.9589 17.7069 10.0008 17.8293C9.05616 17.7069 8.11441 17.4479 7.17463 17.0495L7.17441 17.0494C6.236 16.6521 5.39757 16.0821 4.65716 15.3354L2.16699 7.99984ZM2.16699 7.99984V8.33317C2.16699 9.98199 2.40378 11.3666 2.86003 12.5007C3.32539 13.6575 3.92675 14.5982 4.65704 15.3353L2.16699 7.99984ZM9.98593 12.2419L9.5785 11.6016C9.40397 11.3274 9.17433 11.0355 8.88518 10.7264L9.98593 12.2419ZM9.98593 12.2419L10.4134 11.6148M9.98593 12.2419L10.4134 11.6148M10.4134 11.6148C10.6061 11.3323 10.8442 11.0348 11.13 10.7224L11.1301 10.7223M10.4134 11.6148L11.1301 10.7223M11.1301 10.7223C11.4171 10.4085 11.6902 10.1426 11.9492 9.92247L12.1335 9.76577M11.1301 10.7223L12.1335 9.76577M12.1335 9.76577L12.125 9.52397M12.1335 9.76577L12.125 9.52397M12.125 9.52397C12.0954 8.67862 11.9287 7.80522 11.6309 6.90551M12.125 9.52397L11.6309 6.90551M11.6309 6.90551C11.3346 6.00844 10.934 5.13533 10.4304 4.2864L10.0003 3.5615L9.5703 4.2864C9.06675 5.13524 8.66613 6.00826 8.36981 6.90523C8.07201 7.80504 7.9053 8.67853 7.87563 9.52397L7.86715 9.76577L8.0515 9.92247C8.312 10.1439 8.58989 10.4113 8.88517 10.7264L11.6309 6.90551ZM9.89075 17.1202L10.4981 17.2035L10.4576 16.5918C10.2996 14.2081 9.58703 12.3309 8.25543 11.0371L8.25534 11.037C6.95938 9.77834 5.3511 9.00625 3.45135 8.71398L2.83642 8.61938L2.87636 9.24027C3.03413 11.693 3.76799 13.6045 5.15022 14.8872C6.48331 16.1248 8.0682 16.8703 9.89075 17.1202ZM11.1285 16.3063L11.1976 16.9142L11.7796 16.7254C12.3319 16.5463 12.8985 16.2878 13.4787 15.9541C14.0883 15.6036 14.6477 15.132 15.1586 14.5471L15.1586 14.5471C15.6799 13.9502 16.1159 13.2173 16.4729 12.3584L16.473 12.3581C16.8396 11.4744 17.0526 10.4307 17.1244 9.23824L17.1615 8.6228L16.5517 8.71363C15.1794 8.91801 13.9607 9.37667 12.9059 10.0969L12.9057 10.097C11.8518 10.8173 11.0377 11.7387 10.471 12.8572L10.3717 13.0531L10.4488 13.2587C10.6064 13.6788 10.7426 14.1424 10.8565 14.6506C10.97 15.1589 11.0608 15.7106 11.1285 16.3063Z" fill="#00526C" stroke="#BEC0C5"/>
</svg>
