<svg width="57" height="57" viewBox="0 0 57 57" fill="none" xmlns="http://www.w3.org/2000/svg">
<path d="M5.06641 44.8332V30.8332C5.06641 29.7832 5.2803 28.8304 5.70807 27.9748C6.13585 27.1193 6.69974 26.3609 7.39974 25.6998V19.1665C7.39974 17.2221 8.0803 15.5693 9.44141 14.2082C10.8025 12.8471 12.4553 12.1665 14.3997 12.1665H23.7331C24.6275 12.1665 25.4636 12.3322 26.2414 12.6635C27.0192 12.9948 27.7386 13.4514 28.3997 14.0332C29.0609 13.4498 29.7803 12.9933 30.5581 12.6635C31.3359 12.3337 32.172 12.1681 33.0664 12.1665H42.3997C44.3442 12.1665 45.997 12.8471 47.3581 14.2082C48.7192 15.5693 49.3997 17.2221 49.3997 19.1665V25.6998C50.0997 26.3609 50.6636 27.1193 51.0914 27.9748C51.5192 28.8304 51.7331 29.7832 51.7331 30.8332V44.8332H47.0664V40.1665H9.73307V44.8332H5.06641ZM30.7331 23.8332H44.7331V19.1665C44.7331 18.5054 44.5091 17.9508 44.0611 17.5028C43.6131 17.0548 43.0593 16.8316 42.3997 16.8332H33.0664C32.4053 16.8332 31.8507 17.0572 31.4027 17.5052C30.9547 17.9532 30.7315 18.5069 30.7331 19.1665V23.8332ZM12.0664 23.8332H26.0664V19.1665C26.0664 18.5054 25.8424 17.9508 25.3944 17.5028C24.9464 17.0548 24.3926 16.8316 23.7331 16.8332H14.3997C13.7386 16.8332 13.1841 17.0572 12.7361 17.5052C12.2881 17.9532 12.0649 18.5069 12.0664 19.1665V23.8332ZM9.73307 35.4998H47.0664V30.8332C47.0664 30.1721 46.8424 29.6175 46.3944 29.1695C45.9464 28.7215 45.3926 28.4983 44.7331 28.4998H12.0664C11.4053 28.4998 10.8507 28.7238 10.4027 29.1718C9.95474 29.6198 9.73152 30.1736 9.73307 30.8332V35.4998Z" fill="#337589"/>
</svg>
