<svg width="24" height="24" viewBox="0 0 24 24" fill="none" xmlns="http://www.w3.org/2000/svg">
<path d="M1 20V14.4C1.00265 13.5521 1.36009 12.7396 1.99426 12.14C2.62842 11.5405 3.48777 11.2025 4.38462 11.2H19.6154C20.5122 11.2025 21.3716 11.5405 22.0057 12.14C22.6399 12.7396 22.9973 13.5521 23 14.4V20M18.7692 11.2H3.53846V6C3.54014 5.47005 3.76354 4.96226 4.15989 4.58753C4.55624 4.2128 5.09333 4.00158 5.65385 4H18.3462C18.9067 4.00158 19.4438 4.2128 19.8401 4.58753C20.2365 4.96226 20.4599 5.47005 20.4615 6V11.2H18.7692Z" stroke="#337589" stroke-width="1.5" stroke-linecap="round" stroke-linejoin="round"/>
<path d="M1 21V20.5357C1.00098 20.1666 1.13501 19.813 1.37283 19.552C1.61064 19.291 1.93291 19.1439 2.26923 19.1429H21.7308C22.0671 19.1439 22.3894 19.291 22.6272 19.552C22.865 19.813 22.999 20.1666 23 20.5357V21M4.38462 10.7857V9.85714C4.38587 9.36502 4.56457 8.89345 4.88167 8.54547C5.19877 8.19748 5.62848 8.00138 6.07692 8H10.3077C10.7561 8.00138 11.1858 8.19748 11.5029 8.54547C11.82 8.89345 11.9987 9.36502 12 9.85714M12 9.85714V10.7857M12 9.85714C12.0013 9.36502 12.18 8.89345 12.4971 8.54547C12.8141 8.19748 13.2439 8.00138 13.6923 8H17.9231C18.3715 8.00138 18.8012 8.19748 19.1183 8.54547C19.4354 8.89345 19.6141 9.36502 19.6154 9.85714V10.7857" stroke="#337589" stroke-width="1.5" stroke-linecap="round" stroke-linejoin="round"/>
</svg>
