<svg width="19" height="20" viewBox="0 0 19 20" fill="none" xmlns="http://www.w3.org/2000/svg">
<path d="M17.4381 17.0354C16.7786 16.3717 16.7171 15.3405 16.9061 14.4241C16.9678 14.1253 17 13.8159 17 13.5C17 11 15 9 12.5 9C10 9 8 11 8 13.5C8 16 10 18 12.5 18C12.8163 18 13.126 17.967 13.4252 17.9042C14.3299 17.7146 15.3444 17.7769 16.0032 18.4252L17.3011 19.7023C17.688 20.083 18.3095 20.0805 18.6933 19.6967C19.0784 19.3116 19.0795 18.6874 18.6956 18.3011L17.4381 17.0354ZM12.5 16C11.837 16 11.2011 15.7366 10.7322 15.2678C10.2634 14.7989 10 14.163 10 13.5C10 12.837 10.2634 12.2011 10.7322 11.7322C11.2011 11.2634 11.837 11 12.5 11C13.163 11 13.7989 11.2634 14.2678 11.7322C14.7366 12.2011 15 12.837 15 13.5C15 14.163 14.7366 14.7989 14.2678 15.2678C13.7989 15.7366 13.163 16 12.5 16ZM3.77974 17C2.79682 17 2 16.2032 2 15.2203V9.83196C2 9.37248 1.62752 9 1.16804 9C0.405569 9 0.044751 8.05972 0.611494 7.54966L7.66207 1.20414C8.42268 0.519589 9.57732 0.519588 10.3379 1.20414L17.8379 7.95413C18.2466 8.32195 17.9864 9 17.4366 9C17.2727 9 17.1169 8.93193 16.9991 8.81803C16.2888 8.1314 15.4308 7.61816 14.4923 7.31679C14.173 7.21427 13.8692 7.06258 13.6198 6.83855L10.3378 3.89132C9.57703 3.20818 8.42354 3.20881 7.66356 3.8928L4.66207 6.59414C4.24064 6.97342 4 7.51375 4 8.08072V13.7831C4 14.4552 4.54484 15 5.21694 15H5.51987C5.90672 15 6.23892 15.2739 6.36654 15.639C6.58395 16.2612 6.16565 17 5.50664 17H3.77974Z" fill="#337589"/>
</svg>
