<svg width="49" height="48" viewBox="0 0 49 48" fill="none" xmlns="http://www.w3.org/2000/svg">
<rect x="0.5" width="48" height="48" rx="24" fill="#F2F6F8"/>
<g clip-path="url(#clip0_1374_30406)">
<path d="M24.5 12C22.1266 12 19.8066 12.7038 17.8332 14.0224C15.8598 15.3409 14.3217 17.2151 13.4135 19.4078C12.5052 21.6005 12.2676 24.0133 12.7306 26.3411C13.1936 28.6689 14.3365 30.807 16.0147 32.4853C17.693 34.1635 19.8311 35.3064 22.1589 35.7694C24.4867 36.2324 26.8995 35.9948 29.0922 35.0865C31.2849 34.1783 33.1591 32.6402 34.4776 30.6668C35.7962 28.6934 36.5 26.3734 36.5 24C36.4966 20.8184 35.2313 17.7681 32.9816 15.5184C30.7319 13.2687 27.6816 12.0034 24.5 12ZM24.5 34.1538C22.4918 34.1538 20.5286 33.5583 18.8588 32.4426C17.189 31.3269 15.8876 29.7411 15.1191 27.8857C14.3506 26.0303 14.1495 23.9887 14.5413 22.0191C14.9331 20.0494 15.9001 18.2402 17.3202 16.8201C18.7402 15.4001 20.5494 14.433 22.5191 14.0413C24.4887 13.6495 26.5303 13.8505 28.3857 14.6191C30.2411 15.3876 31.8269 16.689 32.9426 18.3588C34.0583 20.0286 34.6538 21.9918 34.6538 24C34.6508 26.692 33.58 29.2729 31.6765 31.1765C29.7729 33.08 27.192 34.1508 24.5 34.1538ZM31.6146 23.3469C31.7004 23.4327 31.7684 23.5345 31.8148 23.6466C31.8612 23.7586 31.8851 23.8787 31.8851 24C31.8851 24.1213 31.8612 24.2414 31.8148 24.3534C31.7684 24.4655 31.7004 24.5673 31.6146 24.6531C31.5289 24.7388 31.427 24.8069 31.315 24.8533C31.2029 24.8997 31.0828 24.9236 30.9615 24.9236C30.8403 24.9236 30.7202 24.8997 30.6081 24.8533C30.496 24.8069 30.3942 24.7388 30.3085 24.6531L29.1154 23.4588L27.9223 24.6531C27.7491 24.8263 27.5142 24.9236 27.2692 24.9236C27.0243 24.9236 26.7894 24.8263 26.6162 24.6531C26.4429 24.4799 26.3456 24.2449 26.3456 24C26.3456 23.755 26.4429 23.5201 26.6162 23.3469L27.8104 22.1538L26.6162 20.9608C26.4429 20.7876 26.3456 20.5526 26.3456 20.3077C26.3456 20.0627 26.4429 19.8278 26.6162 19.6546C26.7894 19.4814 27.0243 19.3841 27.2692 19.3841C27.5142 19.3841 27.7491 19.4814 27.9223 19.6546L29.1154 20.8488L30.3085 19.6546C30.3942 19.5689 30.496 19.5008 30.6081 19.4544C30.7202 19.408 30.8403 19.3841 30.9615 19.3841C31.0828 19.3841 31.2029 19.408 31.315 19.4544C31.427 19.5008 31.5289 19.5689 31.6146 19.6546C31.7004 19.7404 31.7684 19.8422 31.8148 19.9542C31.8612 20.0663 31.8851 20.1864 31.8851 20.3077C31.8851 20.429 31.8612 20.5491 31.8148 20.6611C31.7684 20.7732 31.7004 20.875 31.6146 20.9608L30.4204 22.1538L31.6146 23.3469ZM22.3839 20.9608L21.1896 22.1538L22.3839 23.3469C22.5571 23.5201 22.6544 23.755 22.6544 24C22.6544 24.2449 22.5571 24.4799 22.3839 24.6531C22.2106 24.8263 21.9757 24.9236 21.7308 24.9236C21.4858 24.9236 21.2509 24.8263 21.0777 24.6531L19.8846 23.4588L18.6915 24.6531C18.5183 24.8263 18.2834 24.9236 18.0385 24.9236C17.7935 24.9236 17.5586 24.8263 17.3854 24.6531C17.2122 24.4799 17.1149 24.2449 17.1149 24C17.1149 23.755 17.2122 23.5201 17.3854 23.3469L18.5796 22.1538L17.3854 20.9608C17.2122 20.7876 17.1149 20.5526 17.1149 20.3077C17.1149 20.0627 17.2122 19.8278 17.3854 19.6546C17.5586 19.4814 17.7935 19.3841 18.0385 19.3841C18.2834 19.3841 18.5183 19.4814 18.6915 19.6546L19.8846 20.8488L21.0777 19.6546C21.2509 19.4814 21.4858 19.3841 21.7308 19.3841C21.9757 19.3841 22.2106 19.4814 22.3839 19.6546C22.5571 19.8278 22.6544 20.0627 22.6544 20.3077C22.6544 20.5526 22.5571 20.7876 22.3839 20.9608ZM25.8846 30C25.8846 30.2738 25.8034 30.5415 25.6513 30.7692C25.4991 30.9969 25.2829 31.1744 25.0299 31.2792C24.7769 31.384 24.4985 31.4114 24.2299 31.358C23.9613 31.3046 23.7146 31.1727 23.5209 30.9791C23.3273 30.7854 23.1954 30.5387 23.142 30.2701C23.0886 30.0015 23.116 29.7231 23.2208 29.4701C23.3256 29.2171 23.5031 29.0009 23.7308 28.8487C23.9585 28.6966 24.2262 28.6154 24.5 28.6154C24.8672 28.6154 25.2194 28.7613 25.4791 29.0209C25.7387 29.2806 25.8846 29.6328 25.8846 30Z" fill="#00526C"/>
</g>
<defs>
<clipPath id="clip0_1374_30406">
<rect width="24" height="24" fill="white" transform="translate(12.5 12)"/>
</clipPath>
</defs>
</svg>
