<svg width="57" height="57" viewBox="0 0 57 57" fill="none" xmlns="http://www.w3.org/2000/svg">
<path d="M52.1335 49.5H5.4668V44.8333H7.80013V9.83333C7.80013 9.21449 8.04596 8.621 8.48355 8.18342C8.92113 7.74583 9.51463 7.5 10.1335 7.5H42.8001C43.419 7.5 44.0125 7.74583 44.45 8.18342C44.8876 8.621 45.1335 9.21449 45.1335 9.83333V21.5H49.8001V44.8333H52.1335V49.5ZM40.4668 44.8333H45.1335V26.1667H31.1335V44.8333H35.8001V30.8333H40.4668V44.8333ZM40.4668 21.5V12.1667H12.4668V44.8333H26.4668V21.5H40.4668ZM17.1335 26.1667H21.8001V30.8333H17.1335V26.1667ZM17.1335 35.5H21.8001V40.1667H17.1335V35.5ZM17.1335 16.8333H21.8001V21.5H17.1335V16.8333Z" fill="#337589"/>
</svg>
