<svg width="21" height="20" viewBox="0 0 21 20" fill="none" xmlns="http://www.w3.org/2000/svg">
<g clip-path="url(#clip0_1571_2271)">
<path d="M0.5 7.8125H20.5V12.1875H0.5V7.8125Z" fill="#E6E7E8"/>
<path d="M17.375 3.125H3.625C1.55406 3.125 0.5 4.66406 0.5 6.5625V7.8125H20.5V6.5625C20.5 4.66406 19.4459 3.125 17.375 3.125Z" fill="#EC1C24"/>
<path d="M0.5 13.4375C0.5 15.3359 1.55406 16.875 3.625 16.875H17.375C19.4459 16.875 20.5 15.3359 20.5 13.4375V12.1875H0.5V13.4375Z" fill="#1B75BB"/>
<path fill-rule="evenodd" clip-rule="evenodd" d="M13.172 11.194C13.1783 11.6737 13.0489 12.1168 12.8183 12.5337C12.7986 12.5703 12.7808 12.6062 12.7617 12.6431C12.6639 12.7653 12.5886 12.905 12.4711 13.0118C12.4414 13.0137 12.4373 12.9934 12.4352 12.9709C12.4402 12.9153 12.4761 12.8762 12.5073 12.834C12.8936 12.3312 13.0842 11.7647 13.0814 11.1293C13.077 10.1462 13.0805 9.1634 13.0805 8.18122C13.0805 8.14278 13.0777 8.10497 13.0805 8.0684C13.087 7.97934 13.0536 7.93215 12.9583 7.94215C12.9323 7.94403 12.9061 7.94215 12.8795 7.94215H7.80204C7.67516 7.94465 7.67079 7.94778 7.67016 8.07778C7.6686 8.81622 7.67016 9.5559 7.67016 10.2953C7.67016 10.5759 7.67141 10.8575 7.66922 11.1387C7.66579 11.77 7.85891 12.3331 8.24204 12.8331C8.27391 12.8747 8.30954 12.9143 8.31547 12.97C8.31329 12.9925 8.30922 13.0128 8.28016 13.0109C8.16329 12.9047 8.08704 12.7656 7.98954 12.6434C7.81516 12.3322 7.67704 12.0075 7.61641 11.6515C7.58933 11.489 7.57563 11.3245 7.57547 11.1597C7.57485 10.0737 7.57547 8.98684 7.57547 7.9009C7.57547 7.88559 7.57766 7.86965 7.57829 7.85559C7.61735 7.83247 7.65891 7.8434 7.70016 7.8434H13.047C13.1945 7.8434 13.1786 7.82809 13.1786 7.97653C13.1792 9.00809 13.1792 10.0403 13.1786 11.0722C13.1789 11.1125 13.1852 11.1537 13.172 11.194Z" fill="#FE0505"/>
<path fill-rule="evenodd" clip-rule="evenodd" d="M8.28125 13.0106C8.28937 13.0021 8.29719 12.9927 8.30469 12.9843C8.37219 12.9759 8.40563 13.0284 8.44281 13.0674C8.88219 13.5196 9.41563 13.7902 10.0397 13.8615C10.8797 13.9574 11.6178 13.7218 12.2366 13.1387C12.2991 13.0796 12.3409 12.9887 12.4456 12.9849C12.4541 12.9934 12.4625 13.0027 12.4706 13.0118C12.07 13.4818 11.5625 13.7846 10.9606 13.9031C9.92406 14.1081 9.03656 13.8115 8.30563 13.0481C8.29531 13.0374 8.29 13.0234 8.28156 13.0106" fill="#FA0406"/>
<path fill-rule="evenodd" clip-rule="evenodd" d="M13.731 6.32043L13.7016 6.38949C13.5069 6.83074 13.3097 7.27136 13.12 7.71574C13.0847 7.79761 13.0497 7.79324 12.9797 7.76261C12.0644 7.36293 11.1063 7.18886 10.1097 7.2273C9.29722 7.2598 8.51534 7.43543 7.76909 7.76386C7.69503 7.79668 7.66503 7.79136 7.63097 7.71261C7.44183 7.27261 7.24912 6.83416 7.05284 6.3973C7.02784 6.34105 7.02784 6.29793 7.06253 6.24355C7.20296 6.02701 7.33872 5.80748 7.46972 5.58511C7.51066 5.51418 7.54816 5.51668 7.61222 5.54105C7.82503 5.62418 8.03941 5.69918 8.25159 5.78386C8.32191 5.81136 8.36253 5.80574 8.41284 5.7448C8.56097 5.56543 8.71972 5.39511 8.86878 5.21699C8.91503 5.16011 8.94941 5.16074 9.00691 5.19511C9.20722 5.31418 9.41128 5.42386 9.61003 5.54355C9.67066 5.57949 9.70878 5.58199 9.76503 5.53449C9.94441 5.38074 10.1313 5.23605 10.3113 5.08355C10.3628 5.03886 10.3925 5.04199 10.4425 5.08418C10.6197 5.2348 10.8032 5.37668 10.98 5.52855C11.0369 5.57668 11.0766 5.58543 11.1444 5.54386C11.3453 5.42105 11.5538 5.31011 11.7566 5.1898C11.8088 5.15918 11.8372 5.16293 11.8778 5.2098C12.0297 5.3898 12.1891 5.56511 12.341 5.74574C12.3863 5.79949 12.4225 5.8148 12.4916 5.78668C12.7141 5.69886 12.9407 5.62074 13.1644 5.53449C13.2157 5.51449 13.2413 5.5198 13.2707 5.56918C13.4125 5.80293 13.5578 6.03355 13.7022 6.26668C13.7135 6.28418 13.7225 6.30449 13.731 6.32043Z" fill="#FEFDFE"/>
<path fill-rule="evenodd" clip-rule="evenodd" d="M13.172 11.1941C13.1698 11.146 13.1651 11.0969 13.1651 11.0481C13.1645 10.0241 13.1635 8.99971 13.1657 7.97564C13.1666 7.88783 13.1498 7.85189 13.0504 7.85189C11.227 7.85564 9.40352 7.85439 7.58008 7.85564C7.57258 7.84862 7.56476 7.84195 7.55664 7.83564C7.61977 7.83377 7.68352 7.83252 7.74695 7.83252H13.0845C13.122 7.83252 13.1585 7.83377 13.196 7.83564C13.1726 7.88127 13.1823 7.93158 13.1823 7.97908C13.1816 9.0069 13.1816 10.0335 13.1816 11.0613C13.1816 11.1056 13.1754 11.1497 13.172 11.1941Z" fill="#FE2D2D"/>
<path fill-rule="evenodd" clip-rule="evenodd" d="M12.447 12.9847C12.1433 13.3082 11.7961 13.5663 11.3804 13.7313C10.357 14.1366 9.17107 13.881 8.41044 13.0857C8.37638 13.051 8.34075 13.0179 8.30607 12.9844C8.00232 12.6138 7.782 12.2019 7.687 11.7282C7.64951 11.5483 7.63014 11.3651 7.62919 11.1813C7.63013 10.1194 7.63075 9.05723 7.62794 7.99598C7.62732 7.91129 7.64951 7.8916 7.73294 7.8916C9.49607 7.8941 11.2595 7.8941 13.0233 7.8916C13.1086 7.8916 13.1267 7.9141 13.1267 7.99723C13.1239 9.05129 13.1233 10.1054 13.1248 11.1594C13.1251 11.8525 12.8854 12.4547 12.447 12.9841" fill="#FEFEFE"/>
<path fill-rule="evenodd" clip-rule="evenodd" d="M8.76546 7.36522C8.42983 7.45678 8.09827 7.56241 7.7789 7.70147C7.71983 7.72709 7.69608 7.71803 7.67108 7.65991C7.48606 7.23416 7.29887 6.80937 7.10952 6.38553C7.08858 6.33803 7.09139 6.30303 7.11827 6.26116C7.24702 6.05866 7.37389 5.85522 7.49639 5.64897C7.53046 5.59147 7.56327 5.58491 7.6214 5.60678C7.84171 5.69116 8.06327 5.77084 8.28514 5.85272C8.31202 5.86241 8.33796 5.88147 8.36983 5.87397C8.37483 5.87647 8.37952 5.88053 8.38452 5.88366C8.44483 5.99897 8.45358 6.12959 8.49296 6.25053C8.52921 6.36897 8.5614 6.48866 8.58421 6.60991C8.6064 6.73741 8.65452 6.85834 8.67452 6.98522C8.69546 7.11459 8.77108 7.23053 8.76546 7.36522Z" fill="#0092DC"/>
<path fill-rule="evenodd" clip-rule="evenodd" d="M11.0578 5.65906C11.2844 5.52844 11.5122 5.39843 11.7381 5.26656C11.7862 5.23843 11.819 5.22937 11.8612 5.27937C12.0331 5.48187 12.2087 5.68094 12.3834 5.8825C12.4022 5.90312 12.404 5.93 12.3994 5.95562C12.3709 6.09656 12.3347 6.23687 12.2937 6.375C12.2869 6.40125 12.265 6.41781 12.2481 6.43656C12.2412 6.46781 12.234 6.49812 12.2278 6.52812C12.2444 6.65966 12.2111 6.79264 12.1347 6.90093C12.1106 6.93625 12.1078 6.97593 12.1097 7.01812C12.1031 7.14187 12.1009 7.26781 12.005 7.36594C11.6502 7.28824 11.2916 7.2292 10.9306 7.18906C10.8875 7.13094 10.9028 7.06625 10.91 7.00281C10.9297 6.94375 10.9322 6.8825 10.9259 6.82031C10.9241 6.78959 10.9266 6.75876 10.9334 6.72875C10.9506 6.67083 10.9558 6.61 10.9487 6.55C10.9459 6.51875 10.9503 6.48843 10.9556 6.45843C10.9756 6.39968 10.9756 6.33937 10.9709 6.27969C10.9691 6.24896 10.9716 6.21813 10.9784 6.18812C10.9984 6.13062 10.9981 6.07031 10.9937 6.01062C10.9916 5.98055 10.994 5.95034 11.0006 5.92093C11.0206 5.86531 11.0197 5.8075 11.0187 5.75C11.0197 5.71468 11.0247 5.68 11.0578 5.65906Z" fill="#171795"/>
<path fill-rule="evenodd" clip-rule="evenodd" d="M11.0298 5.91922C11.0283 5.94922 11.0277 5.97828 11.0261 6.00766C11.0011 6.06672 11.033 6.1311 11.0067 6.18891C11.0058 6.21891 11.0045 6.2486 11.003 6.27797C10.9789 6.33672 11.0105 6.40141 10.9842 6.45922L10.9805 6.54828C10.9564 6.60703 10.988 6.67172 10.9617 6.72953L10.9573 6.8186C10.9333 6.87735 10.9648 6.94203 10.9386 6.99922C10.9358 7.06328 10.933 7.12547 10.9295 7.18828C10.5891 7.17094 10.248 7.16875 9.90735 7.18172C9.78422 7.21516 9.81266 7.10797 9.78422 7.05235C9.77807 7.02699 9.77544 7.00091 9.77641 6.97485C9.77797 6.90578 9.78766 6.83766 9.75985 6.77172C9.73703 6.6661 9.71797 6.55922 9.73203 6.45078L9.73328 6.4136C9.73328 6.35391 9.73828 6.29328 9.71735 6.2361C9.71084 6.2123 9.70831 6.18759 9.70985 6.16297C9.71328 6.10203 9.71485 6.04141 9.69235 5.98297C9.68328 5.88422 9.64235 5.78641 9.67641 5.68516C9.68289 5.6741 9.69162 5.66452 9.70203 5.65703C9.90391 5.49047 10.1086 5.3261 10.3086 5.15766C10.3577 5.11485 10.3877 5.11297 10.4392 5.15516C10.6427 5.3261 10.8505 5.49078 11.057 5.6586C11.0542 5.68485 11.0508 5.7111 11.0473 5.7386C11.0245 5.79672 11.0561 5.86141 11.0298 5.91922ZM12.2483 6.43641L12.3839 5.88235C12.6261 5.79391 12.8695 5.70641 13.1114 5.61516C13.1789 5.58953 13.2198 5.58578 13.2627 5.66141C13.3752 5.85985 13.4977 6.05328 13.6227 6.24547C13.6608 6.3036 13.6608 6.34922 13.6308 6.40891C13.5808 6.50953 13.5286 6.61047 13.4958 6.71766C13.4605 6.83422 13.4083 6.8286 13.3117 6.7861C12.9993 6.64975 12.6765 6.53867 12.3464 6.45391C12.3148 6.44485 12.2808 6.44235 12.2483 6.43641Z" fill="#0092DC"/>
<path fill-rule="evenodd" clip-rule="evenodd" d="M12.0049 7.36588C12.0452 7.25119 12.0452 7.12494 12.1096 7.01807C12.4202 7.07307 12.713 7.18713 13.0046 7.30119C13.2021 7.37869 13.2014 7.38057 13.1171 7.57213C13.0461 7.73338 13.0455 7.73338 12.8836 7.66369C12.5983 7.54244 12.3002 7.45932 12.0049 7.36588Z" fill="#0093DC"/>
<path fill-rule="evenodd" clip-rule="evenodd" d="M9.8123 6.97638C9.81324 6.99951 9.81449 7.02263 9.81605 7.04544C9.82699 7.09482 9.83137 7.14419 9.81387 7.19201C9.46074 7.22482 9.11199 7.28607 8.76637 7.36545C8.69543 7.25201 8.67824 7.12201 8.64543 6.9967C8.67793 6.95576 8.72543 6.94545 8.77324 6.93326C9.06449 6.86076 9.36137 6.82263 9.65856 6.78607C9.70324 6.78045 9.74887 6.77826 9.78793 6.80857C9.82137 6.86045 9.7823 6.92388 9.8123 6.97638ZM9.70324 5.65607L9.69355 5.65795C9.67137 5.70982 9.62199 5.70545 9.57887 5.71045C9.22331 5.74758 8.87036 5.80644 8.52199 5.88669C8.47199 5.89826 8.41981 5.91357 8.37387 5.87138L8.37012 5.87326C8.53824 5.68107 8.70949 5.49232 8.87168 5.29638C8.92543 5.23232 8.96355 5.23482 9.02949 5.27388C9.2523 5.40513 9.47855 5.52888 9.70324 5.65607Z" fill="#171795"/>
<path fill-rule="evenodd" clip-rule="evenodd" d="M12.1338 6.89967C12.1654 6.77592 12.1957 6.65123 12.2269 6.52686C12.6038 6.62279 12.97 6.74779 13.3272 6.89967C13.3913 6.92779 13.3954 6.95154 13.3682 7.00467C13.3244 7.09061 13.3072 7.21842 13.2385 7.25748C13.1663 7.29779 13.0644 7.20311 12.9757 7.16967C12.6991 7.06686 12.421 6.97061 12.1338 6.89967Z" fill="#FD0101"/>
<path fill-rule="evenodd" clip-rule="evenodd" d="M9.81348 7.19344L9.81566 7.04688C9.85723 7.08531 9.8016 7.18969 9.90816 7.18375C9.87905 7.19914 9.8451 7.20262 9.81348 7.19344Z" fill="#3898D9"/>
<path fill-rule="evenodd" clip-rule="evenodd" d="M13.0122 8.00876C13.0132 8.36813 13.0122 8.72657 13.0172 9.08595C13.0182 9.1597 12.9819 9.1597 12.9279 9.1597C12.61 9.15782 12.2925 9.15782 11.9741 9.15782C11.9507 9.02782 11.966 8.8972 11.9644 8.76657C11.961 8.53845 11.9638 8.31001 11.9632 8.08126C11.9632 8.03782 11.961 7.99876 12.0241 8.00063C12.3538 8.00688 12.6829 7.99095 13.0122 8.00876Z" fill="#FE0000"/>
<path fill-rule="evenodd" clip-rule="evenodd" d="M8.79907 9.15918H9.835C9.87125 9.19043 9.86782 9.23355 9.86782 9.27387C9.86844 9.58012 9.86907 9.88793 9.86782 10.1948C9.86688 10.3192 9.84563 10.3407 9.72375 10.3414C9.45438 10.3445 9.18438 10.3445 8.91563 10.3414C8.79594 10.3407 8.78844 10.3311 8.78844 10.2126C8.78782 9.89074 8.78782 9.56887 8.78844 9.24699C8.78844 9.21762 8.78157 9.18668 8.79907 9.15918Z" fill="#FE0101"/>
<path fill-rule="evenodd" clip-rule="evenodd" d="M10.9152 9.15918C11.2606 9.15918 11.6062 9.15918 11.9512 9.16043C11.9696 9.18668 11.9618 9.21793 11.9618 9.24762C11.9624 9.57293 11.9602 9.89824 11.9637 10.2242C11.9646 10.3042 11.9409 10.342 11.8574 10.342C11.5724 10.342 11.2884 10.3426 11.0043 10.342C10.919 10.3414 10.8824 10.2998 10.8824 10.217C10.8818 9.89543 10.8812 9.57293 10.8834 9.25199C10.8834 9.21699 10.8862 9.18355 10.9152 9.15918Z" fill="#FE0000"/>
<path fill-rule="evenodd" clip-rule="evenodd" d="M13.0091 10.3309C13.018 10.6852 13.0176 11.0397 13.0078 11.394C13.0056 11.4624 12.9822 11.4824 12.9147 11.4818C12.5991 11.4781 12.2866 11.4799 11.9741 11.4799C11.9381 11.4493 11.9422 11.4068 11.9416 11.3652C11.9409 11.059 11.9394 10.7531 11.9425 10.4462C11.9425 10.3271 11.9519 10.3199 12.0709 10.3199H12.9231C12.9522 10.3196 12.9834 10.3137 13.0103 10.3309M8.77656 11.4787C8.48625 11.4787 8.19594 11.4787 7.90531 11.4793C7.74625 11.4793 7.74625 11.4793 7.73719 11.3237C7.71969 11.0112 7.735 10.6956 7.72969 10.3799C7.72813 10.3287 7.75531 10.3184 7.79938 10.3184C8.10688 10.319 8.41438 10.3202 8.72125 10.3184C8.80563 10.3177 8.80813 10.3727 8.80969 10.4306C8.81156 10.5952 8.81031 10.7602 8.81031 10.9249C8.81031 11.0671 8.81094 11.2099 8.80969 11.3521C8.80875 11.3965 8.81625 11.4434 8.77656 11.4781M10.8934 13.7527C10.5526 13.8286 10.1993 13.8288 9.85844 13.7534C9.83281 13.6124 9.85094 13.4709 9.84875 13.3293C9.84531 13.1262 9.85031 12.924 9.84594 12.7221C9.84531 12.649 9.87375 12.619 9.94344 12.6184C10.2325 12.6165 10.5209 12.6165 10.8094 12.619C10.8691 12.619 10.9072 12.6387 10.9069 12.7112C10.9047 13.0481 10.9069 13.3849 10.9056 13.7218C10.9053 13.7343 10.8981 13.7431 10.8934 13.7527Z" fill="#FE0000"/>
<path fill-rule="evenodd" clip-rule="evenodd" d="M10.8931 13.7531C10.8931 13.42 10.8909 13.0859 10.8952 12.7534C10.8959 12.6778 10.8784 12.6491 10.7965 12.6503C10.5159 12.6553 10.2352 12.6553 9.95462 12.6503C9.8718 12.6491 9.85587 12.6791 9.8568 12.7541C9.86087 13.0878 9.85868 13.4206 9.85868 13.7538C9.81618 13.7231 9.83743 13.6781 9.83743 13.6409C9.83436 13.3451 9.83456 13.0493 9.83805 12.7534C9.83868 12.6778 9.82055 12.6503 9.73962 12.6516C9.45899 12.6572 9.17805 12.6572 8.89743 12.6516C8.81587 12.6503 8.79743 12.6778 8.79962 12.7541C8.80462 12.9181 8.80024 13.0838 8.79962 13.2472C8.79962 13.2509 8.79805 13.2563 8.79587 13.2569C8.79024 13.2594 8.7843 13.2588 8.77837 13.2588C8.71243 13.1641 8.73962 13.0556 8.73743 12.9528C8.73055 12.6609 8.76805 12.6966 8.47899 12.6928C8.3893 12.6922 8.29993 12.6984 8.21087 12.6763C8.18087 12.5988 8.24837 12.6328 8.26868 12.6322C8.4068 12.6284 8.54618 12.6266 8.68493 12.6316C8.75837 12.6341 8.78087 12.6109 8.78087 12.5369C8.7768 12.1847 8.77868 11.8313 8.77868 11.4791C8.77868 11.1275 8.77743 10.7753 8.78024 10.4238C8.78087 10.3519 8.76149 10.3259 8.68649 10.3266C8.40962 10.3309 8.13274 10.3316 7.85524 10.3266C7.76993 10.3253 7.73993 10.3463 7.74149 10.4381C7.74649 10.7322 7.74087 11.0284 7.7393 11.3238C7.70337 11.1613 7.7268 10.9966 7.7218 10.8325C7.71743 10.6909 7.72524 10.5488 7.71962 10.4066C7.7168 10.3266 7.74524 10.3041 7.82337 10.3053C8.10743 10.3091 8.39149 10.3034 8.67587 10.3091C8.76212 10.3103 8.78243 10.2841 8.78087 10.2016C8.7768 9.85438 8.77868 9.50626 8.77868 9.15782C8.7685 9.14825 8.76014 9.13692 8.75399 9.12438C8.73087 9.07063 8.73649 9.01376 8.73555 8.95782C8.73493 8.69594 8.7343 8.43407 8.73649 8.17219C8.73649 8.08438 8.70305 8.05313 8.6168 8.05438C8.3768 8.05751 8.13743 8.05626 7.89805 8.05438C7.81524 8.05376 7.78587 8.08719 7.78587 8.16844C7.78649 8.42969 7.78712 8.69282 7.78587 8.95469C7.78587 9.01094 7.79149 9.06688 7.77024 9.12063C7.76438 9.1334 7.75647 9.14512 7.7468 9.15532C7.70587 9.13469 7.7218 9.09657 7.7218 9.06626C7.72118 8.74032 7.72462 8.41438 7.71962 8.08907C7.71743 8.00126 7.75024 7.98282 7.83087 7.98407C8.11837 7.98844 8.4068 7.98907 8.69524 7.98344C8.77962 7.98219 8.80462 8.00844 8.80305 8.09219C8.79899 8.44813 8.80087 8.80376 8.80087 9.15844C8.80087 9.50376 8.80368 9.84876 8.79962 10.1941C8.79899 10.2766 8.81274 10.3131 8.90868 10.31C9.18249 10.3034 9.45643 10.3034 9.73024 10.31C9.82493 10.3131 9.8393 10.2766 9.83868 10.1941C9.8343 9.84876 9.83712 9.50376 9.83712 9.15844C9.83712 8.80313 9.8393 8.44751 9.8343 8.09157C9.83368 8.00626 9.86087 7.98219 9.9443 7.98344C10.2327 7.98844 10.5212 7.98844 10.8096 7.98344C10.8931 7.98219 10.9202 8.00594 10.919 8.09094C10.9152 8.44751 10.9174 8.80313 10.9181 9.15844C10.9174 9.50751 10.9196 9.85719 10.9162 10.2059C10.9146 10.2797 10.9299 10.3116 11.0134 10.3097C11.2946 10.3046 11.5759 10.3048 11.8571 10.3103C11.9412 10.3116 11.9543 10.2797 11.9543 10.2059C11.9515 9.85751 11.9537 9.50782 11.9543 9.15969L11.9524 8.08126C11.9524 8.02938 11.9502 7.98407 12.0252 7.98469C12.3437 7.98782 12.6618 7.98657 12.9799 7.98657C12.9962 7.98657 13.0087 7.99313 13.0146 8.00844C12.6956 8.00719 12.3768 8.00782 12.0584 8.00344C11.9827 8.00282 11.9731 8.03751 11.9737 8.10001C11.9765 8.45282 11.9759 8.80563 11.9765 9.15782C11.9759 9.51063 11.9774 9.86219 11.9731 10.2144C11.9724 10.2863 11.9931 10.3103 12.0677 10.3097C12.3449 10.3053 12.6212 10.3072 12.8987 10.3091C12.9368 10.3097 12.9815 10.2884 13.0124 10.3309C12.6968 10.3309 12.3812 10.3322 12.0687 10.3291C11.9959 10.3284 11.9721 10.3497 11.9727 10.4244C11.9771 10.7759 11.9756 11.1281 11.9762 11.4803C11.9756 11.8319 11.9777 12.1841 11.9727 12.5356C11.9712 12.6188 12.004 12.6363 12.0777 12.6334C12.2159 12.6284 12.3549 12.6316 12.4931 12.6328C12.5162 12.6334 12.5662 12.6144 12.5424 12.675C12.4134 12.7063 12.2818 12.6884 12.1512 12.6928C12.0262 12.6972 12.0212 12.7013 12.0184 12.8291C12.0171 12.9188 12.0177 13.0084 12.0184 13.0988C12.0205 13.1551 12.0057 13.2109 11.9759 13.2588C11.9315 13.2453 11.9537 13.2069 11.9537 13.1831C11.9497 13.0334 11.9495 12.8835 11.9531 12.7338C11.9552 12.6684 11.9318 12.6519 11.8696 12.6525C11.5856 12.655 11.3006 12.6563 11.0165 12.6519C10.9377 12.65 10.9137 12.6719 10.9149 12.7513C10.9199 13.0503 10.9171 13.35 10.9159 13.6503C10.9146 13.6847 10.9327 13.7256 10.8931 13.7531Z" fill="#FE7F7F"/>
<path fill-rule="evenodd" clip-rule="evenodd" d="M8.20898 12.6756C8.31898 12.6224 8.43492 12.6565 8.54742 12.6537C8.77648 12.6471 8.77648 12.6518 8.77648 12.8771V13.2581C8.5468 13.1037 8.36742 12.8996 8.20898 12.6756Z" fill="#FE0000"/>
<path fill-rule="evenodd" clip-rule="evenodd" d="M11.9746 13.2592C11.9739 13.087 11.9755 12.9154 11.9718 12.7442C11.9705 12.6795 11.9843 12.6464 12.0571 12.6533C12.2177 12.6692 12.3818 12.627 12.5408 12.6758C12.3818 12.8989 12.2024 13.1029 11.9746 13.2592Z" fill="#FE0202"/>
<path fill-rule="evenodd" clip-rule="evenodd" d="M8.77074 9.13729C8.77225 9.14412 8.77434 9.15081 8.77699 9.15729C8.43293 9.15666 8.08855 9.15604 7.74512 9.15479C7.74575 9.1488 7.74669 9.14286 7.74793 9.13697C7.78418 9.09479 7.83387 9.09479 7.88293 9.09416C8.13387 9.09166 8.38512 9.09166 8.63699 9.09416C8.68512 9.0951 8.7348 9.0951 8.77074 9.13729Z" fill="#FE0101"/>
<path fill-rule="evenodd" clip-rule="evenodd" d="M8.375 5.87213C8.68187 5.8165 8.985 5.74025 9.29562 5.70557C9.42906 5.69025 9.56187 5.67432 9.69438 5.65869C9.70531 5.76682 9.71656 5.87525 9.72687 5.98338C9.73656 6.01025 9.73875 6.03525 9.72406 6.06025C9.59562 6.11775 9.45437 6.10713 9.31969 6.12807C9.08312 6.164 8.84844 6.20494 8.61562 6.25744C8.56625 6.26838 8.515 6.29213 8.46562 6.25619C8.42406 6.13088 8.38344 6.00588 8.375 5.87213Z" fill="#FE0000"/>
<path fill-rule="evenodd" clip-rule="evenodd" d="M8.46449 6.2559C8.87494 6.14792 9.29439 6.07762 9.71762 6.0459C9.7523 6.07996 9.71605 6.12965 9.74262 6.16559L9.74699 6.23402C9.77105 6.29309 9.7373 6.3584 9.76699 6.41715C9.7656 6.42222 9.76327 6.42699 9.76012 6.43121C9.73293 6.46902 9.69105 6.47152 9.64949 6.47652C9.32519 6.5106 9.0031 6.56319 8.6848 6.63402C8.64105 6.64371 8.59605 6.65465 8.55574 6.62184C8.52527 6.49982 8.49464 6.37784 8.46387 6.2559" fill="#171795"/>
<path fill-rule="evenodd" clip-rule="evenodd" d="M8.55664 6.62147C8.95383 6.5324 9.35289 6.4524 9.76102 6.43115C9.77195 6.54459 9.78227 6.65896 9.79352 6.77303C9.80164 6.78959 9.80445 6.80428 9.78664 6.81584C9.42432 6.84471 9.06486 6.90229 8.71164 6.98803C8.69039 6.99303 8.66789 6.99428 8.6457 6.99646C8.61633 6.87178 8.5857 6.74678 8.55664 6.62147Z" fill="#FE0000"/>
<path fill-rule="evenodd" clip-rule="evenodd" d="M7.89891 7.20299C7.79485 7.17924 7.70298 7.13393 7.64735 7.0358C7.63985 7.02237 7.59298 7.02237 7.62579 6.99174C7.65298 6.96674 7.65985 7.00393 7.67735 7.01174C7.71985 7.03174 7.75235 7.07455 7.80641 7.06674C7.88516 7.08205 7.96298 7.08455 8.04079 7.06362C8.16641 7.01487 8.25891 6.93237 8.3036 6.80174C8.33266 6.76643 8.29704 6.71643 8.33141 6.68143C8.34173 6.67112 8.35141 6.66612 8.34079 6.67705C8.34016 6.67768 8.34673 6.68737 8.34923 6.69424V6.69674C8.36923 6.75893 8.36298 6.82237 8.35266 6.8858C8.29173 7.04768 8.19266 7.16893 8.01204 7.2033C7.97526 7.21523 7.93563 7.21512 7.89891 7.20299Z" fill="#F6F8F9"/>
<path fill-rule="evenodd" clip-rule="evenodd" d="M7.90273 6.34758C7.89586 6.36102 7.88804 6.37321 7.88273 6.38665C7.87023 6.41665 7.88773 6.46602 7.85211 6.47571C7.80742 6.4879 7.78461 6.44227 7.75836 6.4129C7.73336 6.3879 7.71367 6.3604 7.71992 6.32258C7.72255 6.31124 7.72755 6.30059 7.73461 6.29133C7.76117 6.26571 7.79179 6.25477 7.82773 6.26508C7.86211 6.28415 7.89023 6.30852 7.90273 6.34758Z" fill="#C7B71C"/>
<path fill-rule="evenodd" clip-rule="evenodd" d="M7.90274 6.34761C7.85899 6.34261 7.8318 6.32136 7.82774 6.27573C7.82506 6.2715 7.82331 6.26675 7.82261 6.2618C7.82191 6.25684 7.82227 6.25179 7.82367 6.24698C7.84024 6.22073 7.85805 6.19698 7.89555 6.21042C7.92555 6.2373 7.97492 6.25011 7.9668 6.30573C7.96211 6.34355 7.93055 6.34355 7.90274 6.34761Z" fill="#E9D017"/>
<path fill-rule="evenodd" clip-rule="evenodd" d="M7.89603 6.21063C7.87509 6.22616 7.85383 6.24126 7.83228 6.25594C7.82395 6.24983 7.81737 6.24164 7.81322 6.23219C7.80918 6.21716 7.80973 6.20128 7.81478 6.18656C7.82447 6.16406 7.83478 6.14125 7.83978 6.1175C7.84198 6.11316 7.84502 6.10929 7.84872 6.10613C7.85242 6.10296 7.85671 6.10056 7.86134 6.09906C7.88322 6.09063 7.91478 6.0625 7.92791 6.09125C7.94759 6.1325 7.91822 6.17344 7.89603 6.21063Z" fill="#F0D416"/>
<path fill-rule="evenodd" clip-rule="evenodd" d="M7.58072 6.25912C7.54853 6.236 7.5154 6.21162 7.57978 6.18756C7.61322 6.17537 7.64946 6.1685 7.67228 6.13818C7.70978 6.1485 7.72447 6.17537 7.7279 6.21131C7.7204 6.25037 7.68978 6.26006 7.65697 6.26881C7.63072 6.27568 7.60697 6.25506 7.58072 6.25912Z" fill="#CDBA19"/>
<path fill-rule="evenodd" clip-rule="evenodd" d="M7.6766 6.12121C7.67441 6.09183 7.6691 6.05089 7.69941 6.04308C7.73254 6.03527 7.75504 6.07121 7.77566 6.09683C7.8091 6.11277 7.81754 6.14214 7.81754 6.17558C7.81758 6.1862 7.81589 6.19676 7.81254 6.20683C7.76722 6.24339 7.74847 6.20371 7.72504 6.17683C7.71665 6.15275 7.6993 6.13282 7.6766 6.12121Z" fill="#E0CA1A"/>
<path fill-rule="evenodd" clip-rule="evenodd" d="M7.74 6.32252L7.7575 6.41284L7.65594 6.43596C7.62125 6.4519 7.62062 6.4269 7.61719 6.40409C7.62533 6.38332 7.63775 6.3645 7.65363 6.34883C7.66951 6.33317 7.6885 6.32101 7.70938 6.31315C7.72041 6.31219 7.73139 6.31555 7.74 6.32252Z" fill="#EED316"/>
<path fill-rule="evenodd" clip-rule="evenodd" d="M7.74039 6.32263C7.73319 6.32255 7.72599 6.32213 7.71883 6.32138C7.68883 6.32076 7.65977 6.34138 7.63008 6.32326C7.6132 6.30263 7.59664 6.28107 7.58008 6.26045C7.60227 6.22263 7.6307 6.24888 7.65633 6.25201C7.69164 6.25513 7.75383 6.20732 7.74227 6.29763L7.74039 6.32263Z" fill="#D7BE14"/>
<path fill-rule="evenodd" clip-rule="evenodd" d="M7.63137 6.32331C7.66044 6.32018 7.68919 6.25237 7.72012 6.32143C7.70325 6.36174 7.66294 6.37081 7.632 6.39112C7.61887 6.38456 7.61669 6.37581 7.62512 6.36424L7.63137 6.32331Z" fill="#F0D516"/>
<path fill-rule="evenodd" clip-rule="evenodd" d="M7.67652 6.12154C7.73527 6.08623 7.74246 6.12279 7.74308 6.16904C7.75339 6.18186 7.75277 6.19654 7.74808 6.21123C7.73996 6.21748 7.72996 6.21779 7.72027 6.21311C7.70496 6.18811 7.68902 6.16373 7.67308 6.13998C7.67188 6.13689 7.67157 6.13353 7.67218 6.13027C7.67278 6.12702 7.67429 6.12399 7.67652 6.12154Z" fill="#F2D717"/>
<path fill-rule="evenodd" clip-rule="evenodd" d="M8.04004 7.06494C8.00336 7.08182 7.96355 7.09082 7.92318 7.09136C7.88281 7.09189 7.84278 7.08396 7.80566 7.06807C7.88348 7.06619 7.96223 7.06619 8.04004 7.06494Z" fill="#2E6E8E"/>
<path fill-rule="evenodd" clip-rule="evenodd" d="M8.34934 6.69584C8.30371 6.71834 8.34184 6.77771 8.30371 6.80334V6.63428C8.35215 6.63834 8.34652 6.67021 8.34934 6.69584Z" fill="#2B6A89"/>
<path fill-rule="evenodd" clip-rule="evenodd" d="M8.35305 6.88748L8.34961 6.69873C8.36629 6.72727 8.37536 6.75961 8.37596 6.79266C8.37656 6.8257 8.36867 6.85835 8.35305 6.88748Z" fill="#2C6F90"/>
<path fill-rule="evenodd" clip-rule="evenodd" d="M7.8098 6.18811C7.77762 6.16623 7.7923 6.12592 7.77637 6.09717L7.86199 6.09904L7.8523 6.11904C7.84456 6.14545 7.82988 6.16929 7.8098 6.18811Z" fill="#A59310"/>
<path fill-rule="evenodd" clip-rule="evenodd" d="M7.89844 7.20312C7.93688 7.20312 7.97406 7.20313 8.01156 7.20375C7.97406 7.23219 7.93594 7.23062 7.89844 7.20312Z" fill="#0778B1"/>
<path fill-rule="evenodd" clip-rule="evenodd" d="M7.62477 6.36426C7.62696 6.3727 7.62977 6.38207 7.63165 6.39113C7.62415 6.41426 7.63509 6.42832 7.65727 6.43645C7.64352 6.44676 7.62509 6.46645 7.61259 6.44488C7.59759 6.41988 7.60446 6.38926 7.62477 6.36426Z" fill="#323713"/>
<path fill-rule="evenodd" clip-rule="evenodd" d="M11.4808 6.64135C11.3999 6.68291 11.4086 6.7776 11.3646 6.84041C11.3405 6.85823 11.3252 6.85198 11.319 6.82323C11.3621 6.75666 11.3865 6.68541 11.3636 6.60416C11.3205 6.6176 11.3233 6.66041 11.2974 6.68166C11.2761 6.68541 11.2615 6.68354 11.2746 6.65666C11.3061 6.57854 11.263 6.50698 11.2552 6.4326C11.2461 6.38573 11.2871 6.35635 11.2961 6.31604C11.2927 6.31041 11.2933 6.30448 11.2974 6.30073C11.3408 6.28073 11.3565 6.3226 11.3849 6.33666C11.4046 6.35073 11.4261 6.36104 11.4452 6.37573C11.4799 6.40854 11.4521 6.43791 11.4371 6.46729C11.4274 6.48385 11.4268 6.49791 11.4452 6.50948C11.4534 6.51401 11.4608 6.52005 11.4668 6.52729C11.4718 6.5355 11.4751 6.54464 11.4765 6.55416C11.4823 6.58284 11.4838 6.61223 11.4808 6.64135Z" fill="#DDC415"/>
<path fill-rule="evenodd" clip-rule="evenodd" d="M11.368 6.36733C11.3442 6.34546 11.3208 6.32265 11.2967 6.30077C11.2864 6.25202 11.3239 6.17983 11.2249 6.17577C11.1939 6.1739 11.208 6.13671 11.2189 6.11233C11.2296 6.09046 11.2596 6.07765 11.2499 6.0464C11.2439 6.02671 11.1961 6.01452 11.2336 5.98827C11.2564 5.97233 11.2824 5.99202 11.3017 6.01077C11.3577 6.01015 11.4158 5.99608 11.4583 6.04858C11.4811 6.05515 11.5199 6.05702 11.5139 6.08452C11.5089 6.1064 11.4736 6.12233 11.4436 6.10046C11.3914 6.12296 11.4339 6.16827 11.4192 6.20046C11.3861 6.25202 11.4174 6.32202 11.368 6.36733Z" fill="#E1C715"/>
<path fill-rule="evenodd" clip-rule="evenodd" d="M11.7906 6.76337C11.7878 6.72306 11.765 6.70431 11.7253 6.70056C11.7019 6.69275 11.6725 6.69274 11.66 6.66337C11.6496 6.63932 11.6447 6.61328 11.6456 6.58712C11.6609 6.51743 11.719 6.54181 11.7622 6.53275C11.7624 6.5223 11.7606 6.51192 11.7566 6.50224C11.7527 6.49256 11.7468 6.4838 11.7394 6.4765C11.7219 6.449 11.694 6.41618 11.729 6.39118C11.7615 6.36743 11.8053 6.34556 11.8472 6.38275C11.8535 6.39097 11.8586 6.40001 11.8625 6.40962C11.875 6.44681 11.8522 6.489 11.8784 6.52431C11.9044 6.59149 11.8859 6.65868 11.8822 6.72587C11.86 6.74837 11.8369 6.77056 11.814 6.79306C11.7928 6.79368 11.7769 6.78993 11.7906 6.76337Z" fill="#F1D616"/>
<path fill-rule="evenodd" clip-rule="evenodd" d="M11.8407 6.41408L11.8379 6.39221C11.8402 6.38752 11.8434 6.38334 11.8473 6.3799C11.8512 6.37647 11.8558 6.37385 11.8607 6.37221C11.9004 6.36971 11.9398 6.36721 11.9795 6.36596C12.0782 6.36221 12.0185 6.40439 11.9991 6.43564C11.9513 6.46752 11.9123 6.50408 11.9282 6.57002C11.9504 6.63283 11.9191 6.68002 11.8829 6.72564C11.8329 6.66346 11.8726 6.59127 11.862 6.52408C11.8338 6.49158 11.8679 6.44658 11.8407 6.41408Z" fill="#E0C715"/>
<path fill-rule="evenodd" clip-rule="evenodd" d="M11.8593 6.37244C11.8525 6.379 11.844 6.38587 11.8365 6.39244C11.794 6.37181 11.7675 6.41087 11.7343 6.42119C11.7468 6.434 11.7587 6.44681 11.7712 6.459C11.7996 6.48275 11.7434 6.52744 11.7918 6.54681C11.7821 6.559 11.814 6.61025 11.7625 6.5815C11.72 6.55775 11.6856 6.53525 11.6578 6.59494C11.6437 6.62775 11.6437 6.62775 11.6056 6.59681C11.6035 6.59186 11.6018 6.58673 11.6006 6.5815V6.56494C11.6256 6.49306 11.6459 6.41837 11.6796 6.34962C11.7396 6.3565 11.8071 6.3065 11.8593 6.37244Z" fill="#E0C715"/>
<path fill-rule="evenodd" clip-rule="evenodd" d="M11.4557 6.54816V6.52629C11.4241 6.49035 11.4476 6.46879 11.4716 6.44316C11.5063 6.40723 11.4913 6.3516 11.5141 6.30879C11.5182 6.30547 11.5219 6.30181 11.5254 6.29785L11.6344 6.32285C11.6301 6.33879 11.6185 6.3516 11.6132 6.36691C11.6166 6.38598 11.6338 6.38816 11.6457 6.39816C11.6616 6.46098 11.6116 6.51035 11.6132 6.5716L11.6138 6.57035C11.5985 6.58504 11.5832 6.58254 11.5644 6.57754C11.5513 6.57316 11.5485 6.51035 11.5182 6.56973C11.5063 6.59223 11.4729 6.56848 11.4557 6.54816Z" fill="#D7BF14"/>
<path fill-rule="evenodd" clip-rule="evenodd" d="M11.4531 5.94344C11.5272 5.89812 11.5941 5.92031 11.6594 5.96344C11.6725 5.98344 11.6809 6.00375 11.6713 6.0275C11.6691 6.04656 11.6594 6.05812 11.6397 6.06219L11.5209 6.02937C11.4947 6.00375 11.4569 5.98719 11.4531 5.94344Z" fill="#9D0202"/>
<path fill-rule="evenodd" clip-rule="evenodd" d="M11.3677 6.3675C11.3758 6.30656 11.3361 6.23313 11.4108 6.18813C11.4142 6.19188 11.417 6.19531 11.4199 6.19781C11.4205 6.20406 11.4217 6.20875 11.4217 6.21313C11.4227 6.2075 11.4233 6.20219 11.4255 6.19531L11.4336 6.1875L11.5255 6.29813L11.5211 6.30781C11.508 6.35313 11.4705 6.37188 11.433 6.39094C11.4108 6.38281 11.3892 6.37594 11.3677 6.3675Z" fill="#CCB514"/>
<path fill-rule="evenodd" clip-rule="evenodd" d="M11.4533 5.94337C11.4899 5.96118 11.5249 5.98055 11.5214 6.0293C11.5014 6.03899 11.4736 6.02493 11.4583 6.0493C11.4036 6.05162 11.3494 6.03852 11.3018 6.01149C11.3483 5.97868 11.3927 5.94274 11.4533 5.94337Z" fill="#E22505"/>
<path fill-rule="evenodd" clip-rule="evenodd" d="M11.4561 6.54812C11.5083 6.5553 11.5668 6.52312 11.614 6.56999C11.614 6.57843 11.614 6.58655 11.6146 6.59374C11.6221 6.65843 11.5721 6.63718 11.5411 6.64312L11.4808 6.64124C11.4496 6.61655 11.4352 6.58718 11.4561 6.54812Z" fill="#EDD216"/>
<path fill-rule="evenodd" clip-rule="evenodd" d="M11.6137 6.57172C11.5877 6.51359 11.599 6.46172 11.6365 6.41359C11.629 6.40516 11.6252 6.39703 11.6262 6.38609C11.6309 6.36484 11.6415 6.34766 11.6627 6.33984C11.6712 6.33984 11.6774 6.34297 11.6809 6.35016C11.6993 6.43703 11.6624 6.50516 11.6137 6.57172Z" fill="#EDD216"/>
<path fill-rule="evenodd" clip-rule="evenodd" d="M11.6819 6.66139C11.6972 6.67421 11.7119 6.68764 11.7262 6.70046C11.6619 6.70358 11.6319 6.75858 11.5881 6.79327C11.57 6.79577 11.5575 6.79389 11.5687 6.77077C11.5868 6.73775 11.595 6.70019 11.5922 6.66264C11.6215 6.63389 11.6522 6.63702 11.6819 6.66139Z" fill="#E2C915"/>
<path fill-rule="evenodd" clip-rule="evenodd" d="M11.6813 6.66156L11.5916 6.66281C11.5763 6.6525 11.5513 6.66719 11.541 6.64375C11.5591 6.6175 11.6063 6.63469 11.6145 6.59375C11.6291 6.5975 11.6429 6.615 11.6585 6.595C11.6848 6.61031 11.6804 6.63719 11.6813 6.66156Z" fill="#CEB713"/>
<path fill-rule="evenodd" clip-rule="evenodd" d="M11.7901 6.76367L11.8132 6.79305C11.7911 6.82492 11.7679 6.85648 11.7457 6.88898C11.7214 6.9043 11.6998 6.9068 11.6826 6.8793L11.7901 6.76367Z" fill="#D3BB15"/>
<path fill-rule="evenodd" clip-rule="evenodd" d="M11.6841 6.87793C11.7047 6.88168 11.7257 6.88449 11.7472 6.88762C11.7535 6.93324 11.7257 6.9473 11.6885 6.95168C11.6672 6.95418 11.6519 6.94262 11.6463 6.92293C11.6375 6.89199 11.6632 6.88699 11.6841 6.87793Z" fill="#C7220C"/>
<path fill-rule="evenodd" clip-rule="evenodd" d="M11.7209 6.07471C11.7565 6.09471 11.7959 6.11064 11.8196 6.14721C11.8237 6.15502 11.8224 6.16127 11.8152 6.16689C11.7568 6.16752 11.7152 6.13689 11.6777 6.09596C11.6877 6.07971 11.7087 6.08533 11.7209 6.07471Z" fill="#90020C"/>
<path fill-rule="evenodd" clip-rule="evenodd" d="M11.8154 6.16715L11.8198 6.14746C11.8629 6.15309 11.9051 6.15965 11.9482 6.1659C11.9023 6.18871 11.8586 6.20496 11.8154 6.16715Z" fill="#A10106"/>
<path fill-rule="evenodd" clip-rule="evenodd" d="M11.7718 6.01025L11.8865 6.01994C11.8278 6.06338 11.7859 6.0615 11.7412 6.03463C11.7456 6.01838 11.7615 6.01838 11.7718 6.01025Z" fill="#870107"/>
<path fill-rule="evenodd" clip-rule="evenodd" d="M11.2748 6.75721C11.2798 6.79377 11.2567 6.80065 11.2276 6.79877C11.2089 6.7969 11.1883 6.79377 11.1895 6.76877C11.1904 6.7469 11.2133 6.74377 11.227 6.73409C11.2486 6.72971 11.2664 6.73284 11.2748 6.75721Z" fill="#DA2406"/>
<path fill-rule="evenodd" clip-rule="evenodd" d="M11.3189 6.82324C11.3298 6.83855 11.3467 6.8423 11.3645 6.84043C11.3695 6.87324 11.3548 6.88981 11.3229 6.88856C11.3029 6.88856 11.2845 6.88137 11.2833 6.85918C11.282 6.83793 11.3029 6.83105 11.3189 6.82324Z" fill="#C9260A"/>
<path fill-rule="evenodd" clip-rule="evenodd" d="M11.9277 6.56846C11.8952 6.49346 11.9277 6.45314 11.9986 6.43408C11.9674 6.47533 11.9311 6.51314 11.9277 6.56846Z" fill="#DFC616"/>
<path fill-rule="evenodd" clip-rule="evenodd" d="M11.7721 6.01021L11.7414 6.03459C11.7214 6.03334 11.7011 6.03334 11.6811 6.03271L11.6743 6.04053L11.6655 6.03428L11.6611 5.9624C11.698 5.97865 11.7346 5.99521 11.7721 6.01021Z" fill="#C70000"/>
<path fill-rule="evenodd" clip-rule="evenodd" d="M11.6631 6.339C11.655 6.35619 11.6456 6.37244 11.6375 6.39025C11.6159 6.37869 11.5784 6.41838 11.5693 6.36838C11.5812 6.339 11.6046 6.32557 11.6353 6.32275L11.6631 6.339Z" fill="#E0C715"/>
<path fill-rule="evenodd" clip-rule="evenodd" d="M11.0296 5.91939C11.033 5.85908 11.0114 5.79564 11.0483 5.73877C11.0477 5.79939 11.0652 5.86158 11.0296 5.91939Z" fill="#447BC8"/>
<path fill-rule="evenodd" clip-rule="evenodd" d="M11.5502 6.84761C11.5439 6.90011 11.5064 6.89698 11.478 6.87636C11.4467 6.85511 11.4739 6.84104 11.4961 6.83292C11.5161 6.82979 11.5371 6.82448 11.5502 6.84761Z" fill="#C92D0A"/>
<path fill-rule="evenodd" clip-rule="evenodd" d="M10.9846 6.45957C10.9881 6.39926 10.9665 6.33582 11.0034 6.27832C11.0024 6.33926 11.0199 6.4027 10.9846 6.45957Z" fill="#447AC8"/>
<path fill-rule="evenodd" clip-rule="evenodd" d="M10.9622 6.72959C10.9656 6.66928 10.944 6.60615 10.9809 6.54834C10.9803 6.60928 10.9972 6.67271 10.9622 6.72959Z" fill="#447BC8"/>
<path fill-rule="evenodd" clip-rule="evenodd" d="M11.2744 6.75736C11.2584 6.74955 11.2425 6.7408 11.2266 6.73424C11.2428 6.70799 11.2587 6.68299 11.2744 6.65674C11.2821 6.66493 11.2897 6.67326 11.2972 6.68174C11.3019 6.71049 11.2894 6.73424 11.2744 6.75736Z" fill="#BEA816"/>
<path fill-rule="evenodd" clip-rule="evenodd" d="M11.0069 6.18906C11.011 6.12875 10.9885 6.06563 11.0263 6.00781C11.0257 6.07 11.0422 6.13219 11.0069 6.18906Z" fill="#447AC8"/>
<path fill-rule="evenodd" clip-rule="evenodd" d="M10.9393 6.99947C10.9428 6.93916 10.9218 6.87572 10.959 6.81885C10.9581 6.8801 10.975 6.94291 10.9393 6.99947Z" fill="#437BC8"/>
<path fill-rule="evenodd" clip-rule="evenodd" d="M11.6644 6.03459C11.67 6.03334 11.6753 6.03334 11.6803 6.03271L11.7212 6.0749C11.7156 6.09803 11.6956 6.09397 11.6791 6.09615C11.6656 6.08522 11.6531 6.0724 11.6406 6.06147C11.6481 6.05209 11.6566 6.04303 11.6644 6.03459Z" fill="#F80000"/>
<path fill-rule="evenodd" clip-rule="evenodd" d="M11.2963 6.31543C11.3007 6.36074 11.2713 6.39356 11.2554 6.43199C11.226 6.37762 11.2735 6.35074 11.2963 6.31543Z" fill="#CCB514"/>
<path fill-rule="evenodd" clip-rule="evenodd" d="M11.5495 6.84738L11.4951 6.8327C11.5195 6.81207 11.5439 6.79051 11.5682 6.77051C11.5745 6.7777 11.5814 6.7852 11.5876 6.79301C11.5829 6.81676 11.5767 6.83895 11.5495 6.84738Z" fill="#C9B215"/>
<path fill-rule="evenodd" clip-rule="evenodd" d="M11.4115 6.18777C11.3934 6.14809 11.3712 6.1059 11.444 6.10059C11.4218 6.12684 11.4315 6.15746 11.4343 6.18715L11.4268 6.19496L11.4178 6.19559L11.4121 6.18777H11.4115Z" fill="#CCB514"/>
<path fill-rule="evenodd" clip-rule="evenodd" d="M10.4615 6.06778C10.4806 6.01466 10.4631 5.95841 10.4659 5.90497C10.4381 5.85059 10.474 5.84153 10.5137 5.83466C10.5965 5.81747 10.6778 5.81997 10.759 5.84028C10.784 5.83778 10.8047 5.85059 10.8265 5.86091C10.8634 5.86809 10.8718 5.89559 10.8728 5.92747C10.9153 5.96966 10.8634 6.00872 10.8709 6.04903C10.8184 6.11789 10.7563 6.17892 10.6865 6.23028L10.6796 6.23403L10.6731 6.23153C10.6509 6.20903 10.6237 6.18934 10.6378 6.15153C10.6474 6.14023 10.6562 6.12822 10.664 6.11559C10.6487 6.12059 10.6543 6.13809 10.6434 6.14622C10.5837 6.21216 10.5581 6.13997 10.5203 6.11622C10.5034 6.09653 10.479 6.08684 10.4615 6.06778Z" fill="#E9CF17"/>
<path fill-rule="evenodd" clip-rule="evenodd" d="M10.2092 6.77306C10.1314 6.75338 10.2064 6.6765 10.1608 6.64431C10.2108 6.61181 10.1467 6.58931 10.1539 6.56119C10.1705 6.519 10.2155 6.5465 10.2398 6.524C10.3251 6.50744 10.4108 6.51494 10.4961 6.51838C10.5476 6.53494 10.6145 6.54088 10.5761 6.62463C10.6061 6.6765 10.5805 6.724 10.5664 6.77306C10.5011 6.81025 10.4858 6.91088 10.3895 6.90806L10.3595 6.90556C10.3205 6.87275 10.3589 6.84744 10.3714 6.81338C10.3358 6.82806 10.3261 6.88775 10.2761 6.86213C10.2386 6.84244 10.2448 6.79244 10.2092 6.77306Z" fill="#E9D017"/>
<path fill-rule="evenodd" clip-rule="evenodd" d="M9.88106 6.06554C9.87356 6.04304 9.90606 6.01554 9.87294 5.9971C9.81575 5.96648 9.86794 5.95023 9.88044 5.92866C9.87638 5.88241 9.90419 5.86335 9.94169 5.85054C10.032 5.82116 10.1236 5.8096 10.2183 5.82866C10.2351 5.83366 10.2508 5.83835 10.2667 5.84585C10.2514 5.94523 10.2848 6.0546 10.2023 6.13991C10.1667 6.17648 10.1361 6.22179 10.0764 6.18085C10.0758 6.1771 10.0751 6.17304 10.0736 6.17054C10.0626 6.15148 10.0951 6.13023 10.0701 6.11679C10.0664 6.11492 10.0561 6.14804 10.0436 6.16242C10.0129 6.18679 9.97981 6.1771 9.9695 6.14835C9.95263 6.10335 9.90888 6.09491 9.88106 6.06554Z" fill="#ECD216"/>
<path fill-rule="evenodd" clip-rule="evenodd" d="M9.88086 6.06596C9.92805 6.07159 9.97148 6.08253 9.99148 6.13503C10.0009 6.16065 10.0205 6.16315 10.0405 6.14221C10.0621 6.13378 10.073 6.14596 10.0809 6.16346C10.1587 6.17253 10.2437 6.08346 10.2415 5.9944C10.2402 5.94628 10.2334 5.89721 10.2624 5.85409C10.3062 5.84753 10.2984 5.87253 10.2887 5.89753C10.3249 6.00503 10.2652 6.09221 10.219 6.17596C10.1721 6.26065 9.99055 6.24846 9.94461 6.16253C9.92617 6.1269 9.88273 6.11003 9.88086 6.06596Z" fill="#C9B414"/>
<path fill-rule="evenodd" clip-rule="evenodd" d="M10.7557 5.86812C10.6829 5.83562 10.6035 5.88531 10.531 5.84969C10.5157 5.83625 10.5207 5.81562 10.5129 5.79969C10.5004 5.76062 10.5039 5.73063 10.5554 5.73625C10.581 5.73938 10.6067 5.74594 10.6295 5.72656C10.6679 5.74063 10.7054 5.75219 10.7464 5.745C10.767 5.74938 10.7882 5.75219 10.8089 5.75656C10.8189 5.80719 10.7482 5.81812 10.7557 5.86812Z" fill="#7C7110"/>
<path fill-rule="evenodd" clip-rule="evenodd" d="M10.209 6.77345C10.2912 6.73751 10.2362 6.86751 10.3043 6.84782C10.3349 6.83938 10.3134 6.81376 10.3162 6.79407C10.3224 6.75501 10.3509 6.76595 10.3765 6.76845C10.3965 6.77032 10.4218 6.75376 10.4327 6.78376C10.443 6.81063 10.423 6.8247 10.4049 6.83751C10.3793 6.85407 10.3543 6.87001 10.3593 6.90595C10.2624 6.91501 10.2118 6.87095 10.209 6.77345Z" fill="#B4A011"/>
<path fill-rule="evenodd" clip-rule="evenodd" d="M10.6875 6.23008C10.7316 6.15195 10.7988 6.09758 10.8719 6.04883C10.85 6.1507 10.7863 6.20727 10.6875 6.23008Z" fill="#CFBA17"/>
<path fill-rule="evenodd" clip-rule="evenodd" d="M10.7468 5.74476C10.744 5.81195 10.6924 5.77757 10.6634 5.78132C10.6243 5.78507 10.6259 5.75445 10.6299 5.72632C10.6843 5.63664 10.7155 5.69164 10.7468 5.74476Z" fill="#E3CA16"/>
<path fill-rule="evenodd" clip-rule="evenodd" d="M10.6452 6.14182L10.673 6.23088C10.609 6.22307 10.5487 6.21025 10.518 6.14244C10.4893 6.12119 10.4937 6.10588 10.5277 6.09619C10.5674 6.11088 10.5874 6.17494 10.6458 6.14244L10.6452 6.14182Z" fill="#CFBA17"/>
<path fill-rule="evenodd" clip-rule="evenodd" d="M10.5743 6.62497C10.5647 6.59153 10.5743 6.53966 10.5112 6.54997C10.4912 6.52434 10.4481 6.55122 10.4328 6.51466C10.43 6.50464 10.43 6.49405 10.4328 6.48403C10.4379 6.47476 10.4456 6.46717 10.455 6.46216C10.4909 6.45434 10.5259 6.43278 10.5634 6.45372C10.5678 6.47809 10.5178 6.50934 10.564 6.52528C10.6468 6.55372 10.5884 6.58966 10.5743 6.62497Z" fill="#686416"/>
<path fill-rule="evenodd" clip-rule="evenodd" d="M10.7564 5.86793C10.7242 5.807 10.7945 5.79481 10.8098 5.75637C10.8236 5.74356 10.8404 5.73075 10.8576 5.74231C10.8767 5.7545 10.8689 5.77231 10.8598 5.78918C10.8495 5.80762 10.8417 5.82762 10.8326 5.84731C10.8392 5.85887 10.837 5.867 10.8264 5.87231C10.8029 5.87106 10.7795 5.86981 10.7564 5.86793Z" fill="#A99611"/>
<path fill-rule="evenodd" clip-rule="evenodd" d="M10.3877 6.90942C10.4339 6.87098 10.503 6.85504 10.5155 6.77942C10.5189 6.75692 10.5468 6.77317 10.5646 6.77442C10.5224 6.80379 10.5339 6.86598 10.4833 6.89598C10.4486 6.91692 10.4236 6.93036 10.3877 6.90942Z" fill="#A39E23"/>
<path fill-rule="evenodd" clip-rule="evenodd" d="M10.0147 5.73272C10.0197 5.72662 10.0252 5.72088 10.031 5.71553C10.0741 5.68491 10.0976 5.71741 10.1241 5.74366C10.131 5.74991 10.1379 5.75585 10.1441 5.7621C10.1154 5.8421 10.0641 5.8121 10.0135 5.79085C10.0001 5.77116 10.001 5.75147 10.0147 5.73272Z" fill="#F1D616"/>
<path fill-rule="evenodd" clip-rule="evenodd" d="M10.0164 5.78176C10.0595 5.77551 10.1067 5.80019 10.1448 5.76176L10.1773 5.74707C10.2008 5.75863 10.2286 5.74895 10.2514 5.76238L10.2383 5.8027C10.2315 5.81183 10.2227 5.81931 10.2126 5.82457C10.1517 5.83738 10.0876 5.81551 10.0264 5.83738C10.0073 5.83551 9.99544 5.8252 9.98732 5.80863C9.98701 5.78957 9.99201 5.77488 10.0164 5.78176Z" fill="#72650B"/>
<path fill-rule="evenodd" clip-rule="evenodd" d="M10.4224 6.41255C10.4287 6.41973 10.4349 6.42723 10.4412 6.43567C10.4565 6.44911 10.4565 6.46442 10.4434 6.48098C10.4318 6.4935 10.4166 6.50213 10.4 6.50571C10.3833 6.50929 10.3659 6.50764 10.3503 6.50098C10.3402 6.49629 10.3315 6.48895 10.3253 6.47973C10.3237 6.4413 10.3524 6.42286 10.3774 6.40223C10.3852 6.40001 10.3934 6.3998 10.4013 6.4016C10.4091 6.4034 10.4164 6.40717 10.4224 6.41255Z" fill="#D0BB17"/>
<path fill-rule="evenodd" clip-rule="evenodd" d="M9.92785 5.82247C9.9049 5.7983 9.8824 5.77372 9.86035 5.74872C9.9016 5.71997 9.93598 5.74435 9.97098 5.75903C9.98848 5.77685 9.97191 5.79497 9.96973 5.81403C9.96458 5.82241 9.95778 5.82964 9.94973 5.83528C9.93816 5.83716 9.93129 5.83403 9.92785 5.82247Z" fill="#A8A324"/>
<path fill-rule="evenodd" clip-rule="evenodd" d="M10.2433 6.45594C10.2548 6.45821 10.2666 6.45773 10.2779 6.45452C10.2891 6.45132 10.2995 6.44548 10.308 6.4375C10.3268 6.44469 10.3183 6.46813 10.3314 6.47969L10.328 6.48469C10.3336 6.48969 10.3361 6.495 10.3349 6.50125C10.3339 6.50781 10.3327 6.51031 10.3305 6.51031C10.3061 6.53 10.2743 6.52625 10.2464 6.53344C10.2308 6.52781 10.2249 6.51437 10.2183 6.50156C10.2149 6.49437 10.2118 6.48688 10.208 6.47969C10.2121 6.46094 10.2218 6.44938 10.2433 6.45594Z" fill="#76690B"/>
<path fill-rule="evenodd" clip-rule="evenodd" d="M9.9275 5.82227C9.93406 5.82539 9.94062 5.82727 9.94718 5.82789C9.95468 5.83414 9.95906 5.84133 9.96093 5.85039C9.95969 5.85883 9.95521 5.86645 9.94843 5.87164C9.90593 5.86727 9.9 5.90508 9.88031 5.92914C9.76906 5.83758 9.92187 5.86258 9.9275 5.82227Z" fill="#80730E"/>
<path fill-rule="evenodd" clip-rule="evenodd" d="M10.4436 6.48061L10.4414 6.4353C10.4811 6.44749 10.513 6.41936 10.5486 6.4153C10.5867 6.4103 10.5823 6.43123 10.5633 6.45311L10.4436 6.48061Z" fill="#A19314"/>
<path fill-rule="evenodd" clip-rule="evenodd" d="M9.78613 6.81625L9.79301 6.77344C9.83051 6.83875 9.80551 6.90969 9.81176 6.97656C9.77644 6.92781 9.79738 6.86906 9.78613 6.81625Z" fill="#3895D7"/>
<path fill-rule="evenodd" clip-rule="evenodd" d="M10.2498 5.7624C10.2192 5.78615 10.1964 5.77521 10.1758 5.74709C10.2548 5.71428 10.2548 5.71428 10.2498 5.7624Z" fill="#D9C014"/>
<path fill-rule="evenodd" clip-rule="evenodd" d="M9.74375 6.1659C9.71375 6.13059 9.72781 6.0859 9.71875 6.04621C9.72156 6.02559 9.72438 6.00465 9.72625 5.9834C9.76188 6.04215 9.73937 6.10559 9.74375 6.1659Z" fill="#4184CA"/>
<path fill-rule="evenodd" clip-rule="evenodd" d="M9.76746 6.4175C9.72903 6.36062 9.74778 6.29656 9.74746 6.23438C9.78621 6.2925 9.75996 6.35719 9.76746 6.4175Z" fill="#3997D9"/>
<path fill-rule="evenodd" clip-rule="evenodd" d="M10.2181 5.80586C10.2247 5.80548 10.2313 5.80443 10.2378 5.80273C10.2475 5.83742 10.3609 5.8193 10.2878 5.89742C10.2828 5.88086 10.2906 5.85648 10.2615 5.85398C10.2468 5.85273 10.2322 5.85211 10.2181 5.85148C10.2056 5.83648 10.2037 5.82117 10.2181 5.80586Z" fill="#2F513F"/>
<path fill-rule="evenodd" clip-rule="evenodd" d="M10.5122 5.7998C10.5291 5.81262 10.5319 5.83043 10.5303 5.8498C10.4872 5.84262 10.4581 5.8523 10.465 5.9048C10.3981 5.83137 10.4925 5.83262 10.5122 5.7998Z" fill="#135568"/>
<path fill-rule="evenodd" clip-rule="evenodd" d="M10.1244 5.74369L10.0312 5.71556C10.095 5.61556 10.1006 5.70994 10.1244 5.74369Z" fill="#BAA917"/>
<path fill-rule="evenodd" clip-rule="evenodd" d="M10.3311 6.4793C10.307 6.47367 10.3129 6.45242 10.3076 6.43711C10.3139 6.42867 10.3201 6.42055 10.3257 6.41211C10.3426 6.3993 10.3589 6.39867 10.3757 6.41273C10.3761 6.44586 10.3473 6.45805 10.3311 6.4793Z" fill="#EED316"/>
<path fill-rule="evenodd" clip-rule="evenodd" d="M10.2434 6.45564L10.2087 6.47939C10.1955 6.46032 10.1608 6.43845 10.1852 6.41845C10.214 6.39595 10.2377 6.4197 10.2434 6.45564Z" fill="#908B1E"/>
<path fill-rule="evenodd" clip-rule="evenodd" d="M10.8281 5.87217C10.8294 5.86436 10.8322 5.85561 10.8338 5.84717C10.8969 5.84904 10.9197 5.87092 10.8753 5.92717C10.8593 5.90912 10.8435 5.89079 10.8281 5.87217Z" fill="#B9A411"/>
<path fill-rule="evenodd" clip-rule="evenodd" d="M10.3762 6.4128C10.3593 6.4128 10.343 6.4128 10.3262 6.41217C10.3584 6.3578 10.3902 6.34311 10.423 6.41217C10.4065 6.4128 10.3912 6.4128 10.3762 6.4128Z" fill="#B5A314"/>
<path fill-rule="evenodd" clip-rule="evenodd" d="M9.9502 5.80211C9.95676 5.78742 9.96457 5.77273 9.97145 5.75867C9.98613 5.74961 10.0021 5.74086 10.0168 5.73242C10.0168 5.74961 10.0177 5.76523 10.0177 5.7818C10.0108 5.78898 10.003 5.79523 9.99551 5.80242C9.9802 5.81617 9.96457 5.8193 9.9502 5.80211Z" fill="#878019"/>
<path fill-rule="evenodd" clip-rule="evenodd" d="M10.5282 6.09648C10.5113 6.10867 10.5119 6.12586 10.5185 6.14273C10.4744 6.13648 10.4838 6.09086 10.4619 6.06836C10.4841 6.07742 10.5141 6.06773 10.5282 6.09648Z" fill="#274C42"/>
<path fill-rule="evenodd" clip-rule="evenodd" d="M10.2186 6.50146L10.2423 6.52397C10.2492 6.52959 10.2511 6.5349 10.2486 6.5399C10.2452 6.5449 10.2423 6.54709 10.2405 6.54709C10.2105 6.55209 10.1814 6.55615 10.1523 6.56115C10.142 6.50553 10.2167 6.54334 10.2186 6.50146Z" fill="#3A431F"/>
<path fill-rule="evenodd" clip-rule="evenodd" d="M13.0124 6.25598C12.9864 6.29441 12.9545 6.33785 12.942 6.2541C12.9324 6.18566 12.8892 6.16316 12.8377 6.14254C12.8286 6.07223 12.9045 6.13535 12.9142 6.09441C12.9286 6.09129 12.9036 6.08535 12.9111 6.09754C12.9155 6.10535 12.9142 6.10785 12.9055 6.1066C12.8827 6.10223 12.8408 6.12504 12.8542 6.07004C12.8645 6.05004 12.9042 6.05223 12.8952 6.01754C12.8811 5.96504 12.8724 5.91504 12.953 5.91504C12.967 5.9341 12.9842 5.94254 13.008 5.93754C13.0167 5.94342 13.0237 5.95165 13.028 5.96129C13.0389 6.02535 13.0045 6.09129 13.0355 6.15535C13.0394 6.19054 13.0312 6.22602 13.0124 6.25598Z" fill="#E4CB17"/>
<path fill-rule="evenodd" clip-rule="evenodd" d="M13.1471 5.98096C13.1687 5.99002 13.1903 5.99939 13.2112 6.00783C13.1868 6.04064 13.2487 6.04189 13.2331 6.07127C13.1743 6.10189 13.1875 6.15502 13.1915 6.20627C13.1956 6.25189 13.1768 6.25627 13.1443 6.23002C13.1046 6.20064 13.0693 6.16846 13.0615 6.11658C13.0615 6.09814 13.0643 6.07252 13.0812 6.07127C13.1596 6.06689 13.0615 6.03658 13.0887 6.02658C13.0959 5.99564 13.1165 5.98096 13.1471 5.98096Z" fill="#E2C815"/>
<path fill-rule="evenodd" clip-rule="evenodd" d="M13.1469 5.98111C13.13 5.99954 13.1138 6.01704 13.0975 6.03548C12.9969 6.10079 13.0388 5.99079 13.0116 5.96579L13.0088 5.93829C13.01 5.93517 13.011 5.93111 13.0132 5.92923C13.0463 5.90423 13.0747 5.84611 13.1144 5.86142C13.1538 5.87736 13.1441 5.93767 13.1469 5.98111Z" fill="#D2BD18"/>
<path fill-rule="evenodd" clip-rule="evenodd" d="M13.0125 6.2561C12.9875 6.2261 13.0206 6.19454 13.0094 6.16329C13.0165 6.15731 13.025 6.15309 13.034 6.15097C13.0431 6.14885 13.0525 6.1489 13.0616 6.1511C13.0969 6.17172 13.0997 6.19797 13.0763 6.22922C13.0547 6.23797 13.0338 6.24704 13.0125 6.2561Z" fill="#F4D817"/>
<path fill-rule="evenodd" clip-rule="evenodd" d="M13.0782 6.23024C13.0788 6.20399 13.0776 6.17837 13.051 6.16305C13.0429 6.13805 13.0442 6.11837 13.0782 6.12024C13.1076 6.15212 13.1401 6.18243 13.1457 6.23024C13.1351 6.23504 13.1236 6.23752 13.112 6.23752C13.1003 6.23752 13.0888 6.23504 13.0782 6.23024Z" fill="#EFD416"/>
<path fill-rule="evenodd" clip-rule="evenodd" d="M12.855 6.0708C12.8612 6.10611 12.8981 6.0908 12.9165 6.10736C12.8978 6.13674 12.849 6.09893 12.8381 6.1433C12.8222 6.1408 12.7934 6.15049 12.795 6.12799C12.7978 6.0983 12.829 6.08486 12.855 6.0708Z" fill="#A69411"/>
<path fill-rule="evenodd" clip-rule="evenodd" d="M12.9543 5.91559C12.8868 5.92215 12.9009 5.97527 12.8965 6.01809C12.8715 5.9784 12.8547 5.93496 12.8868 5.89652C12.9 5.88059 12.9362 5.89215 12.9543 5.91559Z" fill="#687E3D"/>
<path fill-rule="evenodd" clip-rule="evenodd" d="M13.2327 6.07142C13.2146 6.0536 13.1906 6.03954 13.2109 6.00798C13.2327 6.00735 13.2577 6.00735 13.2665 6.02985C13.2762 6.05485 13.2559 6.06642 13.2327 6.07142Z" fill="#D8C116"/>
<path fill-rule="evenodd" clip-rule="evenodd" d="M12.7618 6.97567C12.7658 6.9691 12.7699 6.96348 12.7743 6.95598C12.758 6.91254 12.7249 6.91817 12.6899 6.92535C12.6155 6.92973 12.5418 6.93379 12.4661 6.93879C12.4661 6.88567 12.5139 6.91567 12.5277 6.88504C12.4708 6.81192 12.3783 6.85942 12.2783 6.82035C12.343 6.80817 12.3783 6.80192 12.4124 6.79473C12.4096 6.71723 12.323 6.73598 12.2964 6.68379C12.3668 6.63504 12.4071 6.6416 12.478 6.70692C12.5639 6.78567 12.6905 6.83035 12.8161 6.83379C12.9614 6.83817 13.0836 6.92223 13.2236 6.94473C13.2436 6.94785 13.2693 6.96317 13.2618 6.98942C13.2536 7.02285 13.223 7.02285 13.198 7.01192C13.1408 6.98754 13.0855 6.95879 13.0268 6.93004C13.0039 6.99285 13.0589 7.01004 13.0768 7.04598C13.0886 7.07035 13.1283 7.10817 13.0789 7.12973C13.0211 7.1541 13.0602 7.09442 13.0452 7.08098C12.9886 7.03629 12.9299 6.99848 12.8539 6.9991C12.8196 7.00629 12.7789 7.03629 12.7618 6.97567Z" fill="#040000"/>
<path fill-rule="evenodd" clip-rule="evenodd" d="M12.7619 6.97569C12.7859 7.00756 12.8234 6.991 12.8541 6.99944C12.7978 7.01912 12.7419 7.04412 12.6875 6.991C12.7119 6.966 12.7381 6.97756 12.7619 6.97569Z" fill="#430000"/>
<path fill-rule="evenodd" clip-rule="evenodd" d="M12.6904 6.92484C12.7307 6.87859 12.7676 6.9139 12.8051 6.92922C12.8232 6.93703 12.8286 6.94453 12.8064 6.95172C12.7967 6.95547 12.7851 6.95484 12.7745 6.95547C12.7457 6.94547 12.7182 6.93515 12.6904 6.92484Z" fill="#E7E7E7"/>
<path fill-rule="evenodd" clip-rule="evenodd" d="M9.85738 9.15916C9.85738 8.81134 9.85957 8.46322 9.8555 8.11541C9.85457 8.03541 9.87144 8.00322 9.95957 8.00447C10.2371 8.01009 10.5133 8.01009 10.7905 8.00447C10.8789 8.00259 10.8949 8.03634 10.8943 8.11509C10.8905 8.46353 10.8927 8.81166 10.8933 9.15947C10.8502 9.20416 10.7943 9.20509 10.7377 9.20509C10.4961 9.20697 10.2549 9.20697 10.013 9.20509C9.95707 9.20478 9.90082 9.20353 9.85738 9.15916Z" fill="#FE0000"/>
<path fill-rule="evenodd" clip-rule="evenodd" d="M9.85705 9.15918H10.893C10.8924 9.51074 10.8911 9.86293 10.8939 10.2145C10.8939 10.2854 10.8777 10.3117 10.8014 10.3111C10.5172 10.3067 10.2329 10.3067 9.94861 10.3111C9.87205 10.3117 9.85486 10.2854 9.85548 10.2145C9.85861 9.86293 9.85705 9.51074 9.85705 9.15918Z" fill="#FEFEFE"/>
<path fill-rule="evenodd" clip-rule="evenodd" d="M11.9515 11.4802C11.9509 11.8246 11.9475 12.168 11.9515 12.513C11.9531 12.6021 11.935 12.6368 11.8372 12.6339C11.5684 12.6277 11.2978 12.6289 11.029 12.6339C10.9453 12.6358 10.9106 12.6186 10.9122 12.5239C10.9184 12.1768 10.915 11.828 10.9156 11.4802C10.9603 11.4355 11.0172 11.4355 11.0734 11.4355C11.314 11.4343 11.5537 11.4343 11.7943 11.4355C11.8503 11.4358 11.9075 11.4358 11.9515 11.4802Z" fill="#FE0000"/>
<path fill-rule="evenodd" clip-rule="evenodd" d="M10.8936 11.4802C10.893 11.8252 10.8895 12.1705 10.8952 12.5158C10.8967 12.6118 10.8667 12.6336 10.7748 12.6318C10.5084 12.6258 10.2419 12.6258 9.97547 12.6318C9.88453 12.6336 9.85328 12.6118 9.85453 12.5158C9.86109 12.1705 9.85734 11.8249 9.85734 11.4802C9.90203 11.4355 9.9589 11.4355 10.0152 11.4355C10.2558 11.4343 10.4955 11.4343 10.7361 11.4355C10.7923 11.4358 10.8492 11.4358 10.8936 11.4802Z" fill="#FEFEFE"/>
<path fill-rule="evenodd" clip-rule="evenodd" d="M9.83505 11.4802C9.83505 11.828 9.83224 12.1761 9.83662 12.5239C9.83724 12.6039 9.82068 12.6361 9.73224 12.6339C9.45581 12.6283 9.1793 12.6283 8.90287 12.6339C8.81443 12.6364 8.79724 12.6046 8.79787 12.5239C8.80193 12.1768 8.79912 11.8286 8.79912 11.4802C8.84381 11.4355 8.90068 11.4355 8.95693 11.4355C9.19755 11.4343 9.43787 11.4343 9.67787 11.4355C9.73381 11.4358 9.79068 11.4358 9.83505 11.4802Z" fill="#FE0000"/>
<path fill-rule="evenodd" clip-rule="evenodd" d="M11.9519 11.48H10.916C10.9153 11.1285 10.9175 10.7769 10.9141 10.4254C10.9132 10.3544 10.9307 10.3272 11.0072 10.3282C11.2913 10.3319 11.5753 10.3332 11.86 10.3282C11.9363 10.3269 11.9522 10.355 11.9522 10.4254C11.9494 10.7769 11.9516 11.1285 11.9519 11.48Z" fill="#FEFEFE"/>
<path fill-rule="evenodd" clip-rule="evenodd" d="M10.8933 11.4799H9.85734C9.85734 11.1339 9.86109 10.7896 9.85453 10.4442C9.85328 10.3477 9.88453 10.3258 9.97547 10.3283C10.242 10.3339 10.5086 10.3339 10.7748 10.3283C10.8658 10.3258 10.8967 10.348 10.8952 10.4442C10.8892 10.7896 10.8927 11.1339 10.8933 11.4799Z" fill="#FE0000"/>
<path fill-rule="evenodd" clip-rule="evenodd" d="M9.83541 11.48H8.79947C8.79947 11.1285 8.80166 10.7769 8.79884 10.4254C8.79822 10.355 8.81478 10.3272 8.89134 10.3282C9.17541 10.3332 9.45978 10.3319 9.74416 10.3282C9.82041 10.3269 9.83728 10.3544 9.83666 10.4254C9.83353 10.7769 9.83541 11.1285 9.83541 11.48Z" fill="#FEFEFE"/>
<path fill-rule="evenodd" clip-rule="evenodd" d="M8.7709 9.13736H7.74809C7.7459 8.78517 7.74527 8.43298 7.74121 8.0808C7.74121 8.02111 7.76496 8.0033 7.82121 8.00392C8.11402 8.0058 8.40652 8.0058 8.6984 8.00392C8.75465 8.0033 8.77965 8.02111 8.77902 8.0808C8.77434 8.43298 8.77371 8.78517 8.7709 9.13736Z" fill="#FE0000"/>
<path fill-rule="evenodd" clip-rule="evenodd" d="M7.71809 6.21314C7.72458 6.21069 7.73127 6.20881 7.73809 6.20752C7.76309 6.22721 7.79902 6.21127 7.8234 6.23439C7.8262 6.2413 7.8285 6.2484 7.83027 6.25564L7.8259 6.27564L7.74121 6.29752C7.7309 6.24752 7.68996 6.25533 7.65527 6.25189C7.67652 6.23939 7.69809 6.22658 7.71809 6.21314Z" fill="#9E8C0F"/>
<path fill-rule="evenodd" clip-rule="evenodd" d="M7.81018 6.18772C7.80799 6.1549 7.80955 6.12365 7.85268 6.11865C7.89205 6.15709 7.85612 6.17115 7.83049 6.18772C7.82299 6.19865 7.8158 6.19803 7.80987 6.18709L7.81018 6.18772Z" fill="#F4D917"/>
<path fill-rule="evenodd" clip-rule="evenodd" d="M7.8093 6.18738C7.81586 6.18801 7.82305 6.18801 7.82992 6.18801L7.82555 6.23426C7.79555 6.23051 7.76086 6.23926 7.74023 6.20738L7.74305 6.16895C7.76586 6.1727 7.77273 6.23238 7.8093 6.18738Z" fill="#AF9B10"/>
<path fill-rule="evenodd" clip-rule="evenodd" d="M11.4337 6.39025C11.4424 6.34088 11.4837 6.32557 11.5218 6.30713C11.5565 6.39744 11.5065 6.4615 11.4565 6.52557H11.4337C11.408 6.50838 11.4127 6.48213 11.4121 6.45713C11.4121 6.43244 11.4609 6.424 11.4337 6.39025Z" fill="#EFD416"/>
<path fill-rule="evenodd" clip-rule="evenodd" d="M11.4123 6.45752C11.436 6.47408 11.4338 6.50096 11.4338 6.52596C11.4213 6.54377 11.4023 6.54846 11.3891 6.53158C11.366 6.49846 11.391 6.47752 11.4123 6.45752Z" fill="#D1B914"/>
<path fill-rule="evenodd" clip-rule="evenodd" d="M11.3484 6.07686L11.3218 6.08967C11.3186 6.08165 11.3152 6.07373 11.3115 6.06592C11.3212 6.06279 11.3306 6.05967 11.3409 6.05811C11.3418 6.05811 11.345 6.06842 11.3484 6.07686Z" fill="#BAA511"/>
<path fill-rule="evenodd" clip-rule="evenodd" d="M11.7937 6.5468C11.7096 6.53523 11.748 6.49617 11.773 6.45898C11.8034 6.48273 11.7921 6.51648 11.7937 6.5468Z" fill="#CFB813"/>
<path fill-rule="evenodd" clip-rule="evenodd" d="M11.8406 6.41406C11.8743 6.44594 11.8581 6.48656 11.8618 6.52406C11.8475 6.52719 11.8237 6.54906 11.8253 6.51313C11.8265 6.47938 11.835 6.44719 11.8406 6.41406Z" fill="#D0B813"/>
<path fill-rule="evenodd" clip-rule="evenodd" d="M11.5688 6.36865C11.5863 6.39428 11.6229 6.35397 11.6369 6.39053C11.6363 6.39772 11.6363 6.40459 11.6363 6.41303C11.6104 6.40334 11.5541 6.4399 11.5688 6.36865Z" fill="#F4D817"/>
<path fill-rule="evenodd" clip-rule="evenodd" d="M11.4121 6.18799C11.4174 6.18948 11.4224 6.19192 11.4268 6.19518C11.4312 6.22268 11.4443 6.2508 11.424 6.27893C11.3809 6.25268 11.4127 6.2183 11.4121 6.18799Z" fill="#F1D617"/>
<path fill-rule="evenodd" clip-rule="evenodd" d="M10.6465 6.14283C10.639 6.12033 10.5921 6.1147 10.6143 6.08126C10.6334 6.05251 10.6693 6.06345 10.6971 6.06158C10.7168 6.06095 10.7302 6.08126 10.7265 6.10189C10.7168 6.14595 10.6799 6.1422 10.6459 6.1422L10.6465 6.14283Z" fill="#BEA812"/>
<path fill-rule="evenodd" clip-rule="evenodd" d="M10.7603 5.96221C10.7577 5.96914 10.7527 5.97493 10.7462 5.97853C10.7398 5.98214 10.7322 5.98333 10.725 5.9819C10.709 5.9794 10.695 5.96908 10.7062 5.95377C10.7125 5.94471 10.7318 5.94158 10.745 5.94096C10.7562 5.94033 10.7668 5.9469 10.7603 5.96221Z" fill="#907F0E"/>
<path fill-rule="evenodd" clip-rule="evenodd" d="M10.3573 6.68548C10.3133 6.69048 10.2926 6.66704 10.292 6.63798C10.2911 6.59173 10.3417 6.59954 10.3667 6.58923C10.4014 6.57516 10.4323 6.61735 10.4358 6.64298C10.4467 6.72516 10.3542 6.61704 10.3573 6.68548Z" fill="#AF9B10"/>
<path fill-rule="evenodd" clip-rule="evenodd" d="M10.2402 6.54741L10.2424 6.52428L10.3259 6.50366C10.3655 6.50928 10.4043 6.47366 10.4434 6.50428C10.4662 6.51897 10.489 6.53428 10.5115 6.54991L10.2402 6.54741Z" fill="#6F630B"/>
<path fill-rule="evenodd" clip-rule="evenodd" d="M10.2182 5.8059V5.85152C10.1279 5.85871 10.0376 5.86559 9.94727 5.87152C9.94829 5.86344 9.94882 5.8553 9.94883 5.84715C9.96945 5.83496 9.98695 5.80996 10.0163 5.82715C10.0807 5.78996 10.151 5.81152 10.2182 5.8059Z" fill="#8C7C0D"/>
<path fill-rule="evenodd" clip-rule="evenodd" d="M10.0803 6.16367C10.067 6.15634 10.0535 6.14926 10.04 6.14242C10.0262 6.11367 10.0003 6.07836 10.054 6.06804C10.0775 6.06304 10.1128 6.04117 10.1331 6.07586C10.1659 6.13242 10.0978 6.13367 10.0803 6.16367Z" fill="#B7A211"/>
<path fill-rule="evenodd" clip-rule="evenodd" d="M10.0376 5.91935C10.0767 5.8931 10.1114 5.89748 10.1398 5.93717C10.1211 5.97748 10.0842 5.95717 10.0557 5.96217C10.0373 5.96936 10.0314 5.95842 10.0264 5.94311C10.027 5.93406 10.031 5.92559 10.0376 5.91935Z" fill="#B4A011"/>
<path fill-rule="evenodd" clip-rule="evenodd" d="M10.0383 5.91926V5.94239C10.023 5.95457 10.0077 5.9527 9.99394 5.94051C9.97706 5.92895 9.98269 5.91676 9.99519 5.9077C10.0133 5.89551 10.028 5.90176 10.0383 5.91926Z" fill="#CFB813"/>
<path fill-rule="evenodd" clip-rule="evenodd" d="M9.99414 5.94043L10.0385 5.9423C10.0445 5.94887 10.0504 5.95574 10.057 5.96199C10.0176 6.00637 10.0038 5.98074 9.99414 5.94043Z" fill="#86770C"/>
<path fill-rule="evenodd" clip-rule="evenodd" d="M10.4427 6.50391C10.4036 6.48391 10.3649 6.55078 10.3252 6.50328C10.3277 6.49725 10.3284 6.49065 10.3274 6.48422L10.4427 6.48047V6.50391Z" fill="#A4910F"/>
<path fill-rule="evenodd" clip-rule="evenodd" d="M10.0166 5.82707C9.9943 5.83439 9.97179 5.84106 9.9491 5.84707C9.94848 5.84082 9.94691 5.83488 9.94629 5.82738L9.94848 5.80176L9.99379 5.80238C10.0013 5.81145 10.0091 5.81926 10.0166 5.82707Z" fill="#B4A011"/>
<path fill-rule="evenodd" clip-rule="evenodd" d="M13.0776 6.1202L13.0504 6.16301C13.0372 6.16363 13.0241 6.16426 13.0107 6.16426C12.9629 6.09832 12.9941 6.03238 13.0122 5.96582C13.0416 5.9877 13.0282 6.06301 13.0982 6.03551C13.1172 6.05207 13.1797 6.06801 13.0963 6.08238C13.0879 6.08488 13.0841 6.10738 13.0776 6.1202Z" fill="#A28F0F"/>
</g>
<defs>
<clipPath id="clip0_1571_2271">
<rect width="20" height="20" fill="white" transform="translate(0.5)"/>
</clipPath>
</defs>
</svg>
