<svg width="40" height="40" viewBox="0 0 40 40" fill="none" xmlns="http://www.w3.org/2000/svg">
<path d="M37 11.7688C37 11.7688 37 17.1697 37 19.3492C37 21.0993 35.9491 22.6665 34.423 23.8683C32.8968 25.07 27.8112 28.5792 27.8112 28.5792L21.6153 32.9977L3 19.7468V12.2531L5.09729 13.7473L21.6061 25.5132C21.6061 25.5132 29.3282 20.0757 33.1481 17.2885C33.1481 17.2885 33.8792 16.7676 34.1168 16.5894C34.8985 16.0227 35.557 15.3032 36.0526 14.4746C36.5482 13.6461 36.8705 12.7256 37 11.7688Z" fill="#50545E"/>
<path d="M27.8108 12.2576C27.8108 12.2576 27.5458 12.4632 27.3996 12.55L21.6149 16.6624L15.4189 12.2485L21.6149 7.83452C22.4947 7.27488 23.5195 6.98574 24.5621 7.00292C26.9701 7.00292 28.9212 8.41027 28.9212 10.142C28.9105 10.5561 28.8048 10.9623 28.6123 11.3291C28.4197 11.6959 28.1456 12.0135 27.8108 12.2576Z" fill="#50545E"/>
</svg>
