<svg width="57" height="57" viewBox="0 0 57 57" fill="none" xmlns="http://www.w3.org/2000/svg">
<path d="M52.7002 45.1248H50.0752V25.7654C50.0738 25.1549 49.9446 24.5515 49.6959 23.9939C49.4473 23.4363 49.0847 22.937 48.6314 22.5279L31.1314 6.6248C30.3285 5.88847 29.2787 5.47998 28.1893 5.47998C27.0998 5.47998 26.05 5.88847 25.2471 6.6248L7.74707 22.5279C7.30097 22.9414 6.94458 23.4421 6.69999 23.999C6.4554 24.556 6.32783 25.1572 6.3252 25.7654V45.1248H3.7002C3.004 45.1248 2.33632 45.4014 1.84404 45.8936C1.35176 46.3859 1.0752 47.0536 1.0752 47.7498C1.0752 48.446 1.35176 49.1137 1.84404 49.6059C2.33632 50.0982 3.004 50.3748 3.7002 50.3748H52.7002C53.3964 50.3748 54.0641 50.0982 54.5564 49.6059C55.0486 49.1137 55.3252 48.446 55.3252 47.7498C55.3252 47.0536 55.0486 46.3859 54.5564 45.8936C54.0641 45.4014 53.3964 45.1248 52.7002 45.1248ZM11.5752 26.1592L28.2002 11.0435L44.8252 26.1592V45.1248H36.0752V35.4998C36.0694 34.3412 35.6067 33.2318 34.7874 32.4126C33.9682 31.5933 32.8587 31.1305 31.7002 31.1248H24.7002C23.5416 31.1305 22.4322 31.5933 21.613 32.4126C20.7937 33.2318 20.3309 34.3412 20.3252 35.4998V45.1248H11.5752V26.1592ZM30.8252 45.1248H25.5752V36.3748H30.8252V45.1248Z" fill="#337589"/>
</svg>
