<svg width="24" height="24" viewBox="0 0 24 24" fill="none" xmlns="http://www.w3.org/2000/svg">
<path d="M6.6422 4.64633L6.64224 4.64629C6.72871 4.55969 6.84241 4.50828 6.96331 4.50058C7.08039 4.49313 7.19621 4.52709 7.2906 4.59627L7.35899 4.65665L11.3541 8.64582L11.3561 8.64775C11.4469 8.73743 11.5 8.85844 11.5044 8.98599C11.5089 9.11355 11.4644 9.23798 11.3801 9.33379C11.2958 9.42961 11.178 9.48956 11.051 9.50135C10.928 9.51277 10.8053 9.47828 10.7065 9.40479L10.636 9.34248L8.35375 7.06321L7.50042 6.21101V7.417V19V19.0004C7.50053 19.123 7.45562 19.2413 7.37423 19.3329C7.29548 19.4216 7.18789 19.4793 7.07075 19.4959L6.98811 19.5008C6.87002 19.4979 6.75664 19.4532 6.66821 19.3745C6.5796 19.2956 6.52202 19.1878 6.50554 19.0706L6.50042 18.9851V7.41V6.20103L5.64649 7.05683L3.35461 9.35371C3.3546 9.35372 3.35459 9.35373 3.35458 9.35374C3.35455 9.35377 3.35452 9.3538 3.35449 9.35383C3.26847 9.43992 3.154 9.49168 3.03254 9.49941C2.9151 9.50688 2.79893 9.47269 2.70437 9.40308L2.63709 9.3443C2.5567 9.25948 2.50845 9.14903 2.50101 9.03211C2.49356 8.91509 2.52749 8.79931 2.59661 8.70494L2.65794 8.63558L6.6422 4.64633ZM15.6471 16.9368L16.5004 17.789V16.583V5.00306C16.5004 5.00304 16.5004 5.00302 16.5004 5.003C16.5005 4.88056 16.5454 4.76238 16.6268 4.67088C16.7055 4.58233 16.813 4.52472 16.9301 4.5081L17.0127 4.50315C17.1308 4.50612 17.2442 4.55082 17.3326 4.62954C17.4213 4.70845 17.4789 4.81622 17.4953 4.93349L17.5004 5.01808V16.587V17.7948L18.3541 16.9404L20.6461 14.6464L20.6462 14.6463C20.7323 14.5601 20.8468 14.5083 20.9683 14.5006C21.0857 14.4931 21.2019 14.5273 21.2965 14.5969L21.3638 14.6557C21.4442 14.7405 21.4924 14.851 21.4998 14.9679C21.5073 15.0849 21.4734 15.2007 21.4042 15.2951L21.3429 15.3644L17.3577 19.3536L17.3576 19.3537C17.2716 19.4399 17.1571 19.4917 17.0355 19.4994C16.9189 19.5068 16.8035 19.4731 16.7092 19.4045L16.641 19.3434L12.6471 15.3535C12.647 15.3535 12.647 15.3535 12.6469 15.3534C12.5572 15.2635 12.505 15.1429 12.501 15.0159C12.497 14.8889 12.5415 14.7651 12.6255 14.6697C12.7095 14.5743 12.8266 14.5145 12.9531 14.5024C13.0751 14.4907 13.197 14.5243 13.2957 14.5964L13.3648 14.6575L15.6471 16.9368Z" fill="#337589" stroke="#337589"/>
</svg>
