<svg width="57" height="57" viewBox="0 0 57 57" fill="none" xmlns="http://www.w3.org/2000/svg">
<path d="M28.6017 51.8335C27.9406 51.8335 27.386 51.6095 26.938 51.1615C26.49 50.7135 26.2668 50.1597 26.2684 49.5001V21.5001H8.94336C8.36003 21.5001 7.99058 21.2279 7.83503 20.6835C7.67947 20.139 7.83503 19.7112 8.30169 19.4001L25.9184 7.03346C26.735 6.48902 27.6295 6.2168 28.6017 6.2168C29.5739 6.2168 30.4684 6.48902 31.285 7.03346L48.9017 19.4001C49.3684 19.7112 49.5239 20.139 49.3684 20.6835C49.2128 21.2279 48.8434 21.5001 48.26 21.5001H30.935V49.5001C30.935 50.1612 30.711 50.7158 30.263 51.1638C29.815 51.6118 29.2612 51.835 28.6017 51.8335ZM28.6017 16.8335H37.1184H20.085H28.6017ZM9.93503 51.8335C9.27391 51.8335 8.71936 51.6095 8.27136 51.1615C7.82336 50.7135 7.60014 50.1597 7.60169 49.5001V39.5835L6.14336 31.5918C6.02669 30.9307 6.14336 30.3474 6.49336 29.8418C6.84336 29.3362 7.34891 29.0251 8.01003 28.9085C8.63225 28.7918 9.20625 28.9186 9.73203 29.2888C10.2578 29.659 10.5782 30.1545 10.6934 30.7751L12.035 37.8335H19.2684C19.9295 37.8335 20.484 38.0575 20.932 38.5055C21.38 38.9535 21.6032 39.5072 21.6017 40.1668V49.5001C21.6017 50.1612 21.3777 50.7158 20.9297 51.1638C20.4817 51.6118 19.9279 51.835 19.2684 51.8335C18.6072 51.8335 18.0527 51.6095 17.6047 51.1615C17.1567 50.7135 16.9335 50.1597 16.935 49.5001V42.5001H12.2684V49.5001C12.2684 50.1612 12.0444 50.7158 11.5964 51.1638C11.1484 51.6118 10.5946 51.835 9.93503 51.8335ZM37.935 51.8335C37.2739 51.8335 36.7194 51.6095 36.2714 51.1615C35.8234 50.7135 35.6001 50.1597 35.6017 49.5001V40.1668C35.6017 39.5057 35.8257 38.9511 36.2737 38.5031C36.7217 38.0551 37.2755 37.8319 37.935 37.8335H45.1684L46.51 30.7751C46.6267 30.1529 46.9479 29.6567 47.4737 29.2865C47.9995 28.9162 48.5727 28.7902 49.1934 28.9085C49.8545 29.0251 50.36 29.3362 50.71 29.8418C51.06 30.3474 51.1767 30.9307 51.06 31.5918L49.6017 39.5835V49.5001C49.6017 50.1612 49.3777 50.7158 48.9297 51.1638C48.4817 51.6118 47.9279 51.835 47.2684 51.8335C46.6072 51.8335 46.0527 51.6095 45.6047 51.1615C45.1567 50.7135 44.9335 50.1597 44.935 49.5001V42.5001H40.2684V49.5001C40.2684 50.1612 40.0444 50.7158 39.5964 51.1638C39.1484 51.6118 38.5946 51.835 37.935 51.8335ZM20.085 16.8335H37.1184L28.6017 10.8835L20.085 16.8335Z" fill="#337589"/>
</svg>
