<svg width="56" height="57" viewBox="0 0 56 57" fill="none" xmlns="http://www.w3.org/2000/svg">
<path d="M9.33334 49.5002C8.67223 49.5002 8.11767 49.2762 7.66967 48.8282C7.22167 48.3802 6.99845 47.8265 7.00001 47.1669V20.7419C7.00001 20.2364 7.14623 19.7985 7.43867 19.4282C7.73112 19.058 8.09045 18.7765 8.51668 18.5836L34.1833 8.72524C34.9611 8.41413 35.6806 8.49191 36.3417 8.95857C37.0028 9.42524 37.3333 10.0669 37.3333 10.8836V28.5002H39.6667C39.6667 27.2169 40.124 26.1179 41.0387 25.2032C41.9533 24.2886 43.0516 23.832 44.3333 23.8336C45.6167 23.8336 46.7157 24.2909 47.6303 25.2056C48.545 26.1202 49.0016 27.2185 49 28.5002V47.1669C49 47.828 48.776 48.3826 48.328 48.8306C47.88 49.2786 47.3262 49.5018 46.6667 49.5002H9.33334ZM11.6667 44.8336H21V30.8336C21 30.1725 21.224 29.6179 21.672 29.1699C22.12 28.7219 22.6738 28.4987 23.3333 28.5002H32.6667V14.2669L11.6667 22.3752V44.8336ZM25.6667 44.8336H32.6667V40.1669C32.6667 39.5058 32.8907 38.9512 33.3387 38.5032C33.7867 38.0552 34.3405 37.832 35 37.8336C35.6611 37.8336 36.2157 38.0576 36.6637 38.5056C37.1117 38.9536 37.3349 39.5074 37.3333 40.1669V44.8336H44.3333V33.1669H25.6667V44.8336Z" fill="#337589"/>
</svg>
